# 3ds Max Wavefront OBJ Exporter v0.97b - (c)2007 guruware
# File Created: 16.07.2020 12:57:15

mtllib roof outer.mtl

#
# object roof_outer
#

v  -33.9268 133.2677 72.8324
v  -33.9268 188.4234 30.9449
v  29.1215 188.4234 30.9449
v  29.1215 133.2677 72.8324
v  -33.9268 133.2677 -10.9426
v  29.1215 133.2677 -10.9426
v  -33.9268 140.5726 72.8324
v  29.1215 140.5726 72.8324
v  29.1215 198.7014 30.9449
v  -33.9268 198.7014 30.9449
v  29.1215 140.5726 -10.9426
v  -33.9268 140.5726 -10.9426
# 12 vertices

vn -0.5438 -0.7954 0.2678
vn -0.9344 -0.3562 -0.0000
vn 0.9344 -0.3562 -0.0000
vn 0.5438 -0.7954 0.2678
vn -0.5438 -0.7954 -0.2678
vn 0.5438 -0.7954 -0.2678
vn -0.6441 0.2350 0.7280
vn 0.6441 0.2350 0.7280
vn 0.5623 0.8269 -0.0000
vn -0.5623 0.8269 -0.0000
vn 0.6441 0.2350 -0.7280
vn -0.6441 0.2350 -0.7280
# 12 vertex normals

vt 0.6812 0.0200 0.0000
vt 0.6812 0.3679 0.0000
vt 0.3645 0.3679 0.0000
vt 0.3645 0.0200 0.0000
vt 0.6812 0.7158 0.0000
vt 0.3645 0.7158 0.0000
vt 0.0200 0.0200 0.0000
vt 0.3367 0.0200 0.0000
vt 0.3367 0.3799 0.0000
vt 0.0200 0.3799 0.0000
vt 0.3367 0.7398 0.0000
vt 0.0200 0.7398 0.0000
vt 0.7090 0.3040 0.0000
vt 0.9572 0.1073 0.0000
vt 0.9800 0.1361 0.0000
vt 0.7318 0.3328 0.0000
vt 0.5537 0.8015 0.0000
vt 0.9016 0.8015 0.0000
vt 0.9427 0.8327 0.0000
vt 0.5830 0.8237 0.0000
vt 0.8082 0.4664 0.0000
vt 0.8374 0.4886 0.0000
vt 0.7090 0.2167 0.0000
vt 0.9572 0.0200 0.0000
vt 0.9800 0.0488 0.0000
vt 0.7318 0.2454 0.0000
vt 0.4664 0.7433 0.0000
vt 0.8143 0.7433 0.0000
vt 0.8554 0.7745 0.0000
vt 0.4956 0.7655 0.0000
vt 0.7209 0.4082 0.0000
vt 0.7501 0.4304 0.0000
# 32 texture coords

o roof_outer
g roof_outer
usemtl wire_135006006
s 2
f 1/1/1 2/2/2 3/3/3 4/4/4 
f 2/2/2 5/5/5 6/6/6 3/3/3 
s 4
f 7/7/7 8/8/8 9/9/9 10/10/10 
f 10/10/10 9/9/9 11/11/11 12/12/12 
s 8
f 1/13/1 4/14/4 8/15/8 7/16/7 
s 16
f 4/17/4 3/18/3 9/19/9 8/20/8 
f 3/18/3 6/21/6 11/22/11 9/19/9 
s 32
f 6/23/6 5/24/5 12/25/12 11/26/11 
s 64
f 5/27/5 2/28/2 10/29/10 12/30/12 
f 2/28/2 1/31/1 7/32/7 10/29/10 
# 10 polygons

