# 3ds Max Wavefront OBJ Exporter v0.97b - (c)2007 guruware
# File Created: 16.07.2020 13:02:19

mtllib window.mtl

#
# object window
#

v  19.9569 128.2807 42.3055
v  19.9569 128.2807 19.5842
v  25.8122 128.2807 19.5842
v  25.8122 128.2807 42.3055
v  19.9569 160.6175 42.3055
v  25.8122 160.6175 42.3055
v  25.8122 160.6175 19.5842
v  19.9569 160.6175 19.5842
# 8 vertices

vn -0.5774 -0.5774 0.5774
vn -0.5774 -0.5774 -0.5774
vn 0.5774 -0.5774 -0.5774
vn 0.5774 -0.5774 0.5774
vn -0.5774 0.5774 0.5774
vn 0.5774 0.5774 0.5774
vn 0.5774 0.5774 -0.5774
vn -0.5774 0.5774 -0.5774
# 8 vertex normals

vt 0.3749 0.9794 0.0000
vt 0.0378 0.9815 0.0000
vt 0.0373 0.8946 0.0000
vt 0.3744 0.8926 0.0000
vt 0.6783 0.6426 0.0000
vt 0.7652 0.6425 0.0000
vt 0.7653 0.9796 0.0000
vt 0.6785 0.9797 0.0000
vt 0.9009 0.5055 0.0000
vt 0.9878 0.5058 0.0000
vt 0.9859 0.9855 0.0000
vt 0.8991 0.9852 0.0000
vt 0.0156 0.0194 0.0000
vt 0.6170 0.0176 0.0000
vt 0.6195 0.8736 0.0000
vt 0.0180 0.8754 0.0000
vt 0.7958 0.5065 0.0000
vt 0.8827 0.5069 0.0000
vt 0.8808 0.9866 0.0000
vt 0.7940 0.9862 0.0000
vt 0.6476 0.0151 0.0000
vt 0.9847 0.0124 0.0000
vt 0.9886 0.4921 0.0000
vt 0.6515 0.4948 0.0000
# 24 texture coords

o window
g window
usemtl wire_228153184
s 2
f 1/1/1 2/2/2 3/3/3 4/4/4 
s 4
f 5/5/5 6/6/6 7/7/7 8/8/8 
s 8
f 1/9/1 4/10/4 6/11/6 5/12/5 
s 16
f 4/13/4 3/14/3 7/15/7 6/16/6 
s 32
f 3/17/3 2/18/2 8/19/8 7/20/7 
s 64
f 2/21/2 1/22/1 5/23/5 8/24/8 
# 6 polygons

