# 3ds Max Wavefront OBJ Exporter v0.97b - (c)2007 guruware
# File Created: 20.07.2020 12:50:45

mtllib porch roof2.mtl

#
# object porch_roof
#

v  55.3333 72.4398 26.6659
v  55.3333 76.1664 -0.0000
v  80.4890 76.1664 -0.0000
v  80.4890 72.4398 26.6659
v  55.3333 72.4398 -26.6659
v  80.4890 72.4398 -26.6659
v  55.3333 74.8917 26.6659
v  80.4890 74.8917 26.6659
v  80.4890 80.5110 -0.0000
v  55.3333 80.5110 -0.0000
v  80.4890 74.8917 -26.6659
v  55.3333 74.8917 -26.6659
# 12 vertices

vn -0.5704 -0.6196 0.5392
vn -0.7397 -0.6729 -0.0000
vn 0.7397 -0.6729 -0.0000
vn 0.5704 -0.6196 0.5392
vn -0.5704 -0.6196 -0.5392
vn 0.5704 -0.6196 -0.5392
vn -0.5891 0.5090 0.6276
vn 0.5891 0.5090 0.6276
vn 0.6636 0.7481 -0.0000
vn -0.6636 0.7481 -0.0000
vn 0.5891 0.5090 -0.6276
vn -0.5891 0.5090 -0.6276
# 12 vertex normals

vt 0.7277 0.0155 0.0000
vt 0.7277 0.3663 0.0000
vt 0.3723 0.3663 0.0000
vt 0.3723 0.0155 0.0000
vt 0.7277 0.7171 0.0000
vt 0.3723 0.7171 0.0000
vt 0.0148 0.0155 0.0000
vt 0.3702 0.0155 0.0000
vt 0.3702 0.3725 0.0000
vt 0.0148 0.3725 0.0000
vt 0.3702 0.7294 0.0000
vt 0.0148 0.7294 0.0000
vt 0.6393 0.9533 0.0000
vt 0.9161 0.7305 0.0000
vt 0.9403 0.7605 0.0000
vt 0.6634 0.9833 0.0000
vt 0.0196 0.9173 0.0000
vt 0.3704 0.9173 0.0000
vt 0.3818 0.9845 0.0000
vt 0.0260 0.9552 0.0000
vt 0.7017 0.8020 0.0000
vt 0.7082 0.8399 0.0000
vt 0.5725 0.9533 0.0000
vt 0.8494 0.7305 0.0000
vt 0.8735 0.7605 0.0000
vt 0.5966 0.9833 0.0000
vt 0.0148 0.8363 0.0000
vt 0.3656 0.8363 0.0000
vt 0.3770 0.9035 0.0000
vt 0.0212 0.8742 0.0000
vt 0.6970 0.7210 0.0000
vt 0.7034 0.7589 0.0000
# 32 texture coords

o porch_roof
g porch_roof
usemtl wire_135006006
s 2
f 1/1/1 2/2/2 3/3/3 4/4/4 
f 2/2/2 5/5/5 6/6/6 3/3/3 
s 4
f 7/7/7 8/8/8 9/9/9 10/10/10 
f 10/10/10 9/9/9 11/11/11 12/12/12 
s 8
f 1/13/1 4/14/4 8/15/8 7/16/7 
s 16
f 4/17/4 3/18/3 9/19/9 8/20/8 
f 3/18/3 6/21/6 11/22/11 9/19/9 
s 32
f 6/23/6 5/24/5 12/25/12 11/26/11 
s 64
f 5/27/5 2/28/2 10/29/10 12/30/12 
f 2/28/2 1/31/1 7/32/7 10/29/10 
# 10 polygons

