# 3ds Max Wavefront OBJ Exporter v0.97b - (c)2007 guruware
# File Created: 09.07.2020 11:51:51

mtllib blueberry.mtl

#
# object Blueberry
#

v  0.0000 5.0125 -0.0000
v  -0.0000 3.5444 -3.5444
v  -2.5063 3.5444 -2.5063
v  -3.5444 3.5444 0.0000
v  -2.5063 3.5444 2.5063
v  0.0000 3.5444 3.5444
v  2.5063 3.5444 2.5063
v  3.5444 3.5444 0.0000
v  2.5063 3.5444 -2.5063
v  -0.0000 -0.0000 -5.0125
v  -3.5444 -0.0000 -3.5444
v  -5.0125 -0.0000 0.0000
v  -3.5444 -0.0000 3.5444
v  0.0000 -0.0000 5.0125
v  3.5444 -0.0000 3.5444
v  5.0125 -0.0000 0.0000
v  3.5444 -0.0000 -3.5444
v  -0.0000 -3.5444 -3.5444
v  -2.5063 -3.5444 -2.5063
v  -3.5444 -3.5444 0.0000
v  -2.5063 -3.5444 2.5063
v  0.0000 -3.5444 3.5444
v  2.5063 -3.5444 2.5063
v  3.5444 -3.5444 0.0000
v  2.5063 -3.5444 -2.5063
v  0.0000 -5.0125 -0.0000
# 26 vertices

vn -0.0000 1.0000 -0.0000
vn 0.0000 0.6630 -0.7486
vn -0.5294 0.6630 -0.5294
vn -0.7486 0.6630 -0.0000
vn -0.5294 0.6630 0.5294
vn 0.0000 0.6630 0.7486
vn 0.5294 0.6630 0.5294
vn 0.7486 0.6630 0.0000
vn 0.5294 0.6630 -0.5294
vn 0.0000 0.0000 -1.0000
vn -0.7071 -0.0000 -0.7071
vn -1.0000 -0.0000 0.0000
vn -0.7071 -0.0000 0.7071
vn -0.0000 -0.0000 1.0000
vn 0.7071 -0.0000 0.7071
vn 1.0000 -0.0000 0.0000
vn 0.7071 -0.0000 -0.7071
vn 0.0000 -0.6630 -0.7486
vn -0.5294 -0.6630 -0.5294
vn -0.7486 -0.6630 -0.0000
vn -0.5294 -0.6630 0.5294
vn -0.0000 -0.6630 0.7486
vn 0.5294 -0.6630 0.5294
vn 0.7486 -0.6630 0.0000
vn 0.5294 -0.6630 -0.5294
vn -0.0000 -1.0000 -0.0000
# 26 vertex normals

vt 0.4503 0.9540 0.0000
vt 0.3018 0.9173 0.0000
vt 0.3633 0.8283 0.0000
vt 0.5053 0.8854 0.0000
vt 0.4366 0.7487 0.0000
vt 0.5763 0.8120 0.0000
vt 0.5134 0.6721 0.0000
vt 0.6530 0.7379 0.0000
vt 0.5919 0.5962 0.0000
vt 0.7322 0.6635 0.0000
vt 0.6714 0.5202 0.0000
vt 0.8133 0.5892 0.0000
vt 0.7526 0.4436 0.0000
vt 0.8971 0.5165 0.0000
vt 0.8369 0.3662 0.0000
vt 0.9841 0.4503 0.0000
vt 0.9293 0.2899 0.0000
vt 0.1646 0.8498 0.0000
vt 0.2598 0.7428 0.0000
vt 0.3405 0.6569 0.0000
vt 0.4194 0.5774 0.0000
vt 0.4979 0.4998 0.0000
vt 0.5765 0.4223 0.0000
vt 0.6553 0.3428 0.0000
vt 0.7361 0.2569 0.0000
vt 0.8313 0.1499 0.0000
vt 0.0666 0.7099 0.0000
vt 0.1590 0.6335 0.0000
vt 0.2433 0.5561 0.0000
vt 0.3244 0.4795 0.0000
vt 0.4040 0.4035 0.0000
vt 0.4825 0.3276 0.0000
vt 0.5593 0.2510 0.0000
vt 0.6326 0.1714 0.0000
vt 0.6940 0.0824 0.0000
vt 0.0117 0.5494 0.0000
vt 0.0988 0.4832 0.0000
vt 0.1826 0.4105 0.0000
vt 0.2637 0.3362 0.0000
vt 0.3429 0.2618 0.0000
vt 0.4196 0.1877 0.0000
vt 0.4906 0.1143 0.0000
vt 0.5456 0.0456 0.0000
# 43 texture coords

o Blueberry
g Blueberry
usemtl blueberry
s 1
f 1/1/1 2/2/2 3/3/3 
f 1/4/1 3/3/3 4/5/4 
f 1/6/1 4/5/4 5/7/5 
f 1/8/1 5/7/5 6/9/6 
f 1/10/1 6/9/6 7/11/7 
f 1/12/1 7/11/7 8/13/8 
f 1/14/1 8/13/8 9/15/9 
f 1/16/1 9/15/9 2/17/2 
f 2/2/2 10/18/10 11/19/11 3/3/3 
f 3/3/3 11/19/11 12/20/12 4/5/4 
f 4/5/4 12/20/12 13/21/13 5/7/5 
f 5/7/5 13/21/13 14/22/14 6/9/6 
f 6/9/6 14/22/14 15/23/15 7/11/7 
f 7/11/7 15/23/15 16/24/16 8/13/8 
f 8/13/8 16/24/16 17/25/17 9/15/9 
f 9/15/9 17/25/17 10/26/10 2/17/2 
f 10/18/10 18/27/18 19/28/19 11/19/11 
f 11/19/11 19/28/19 20/29/20 12/20/12 
f 12/20/12 20/29/20 21/30/21 13/21/13 
f 13/21/13 21/30/21 22/31/22 14/22/14 
f 14/22/14 22/31/22 23/32/23 15/23/15 
f 15/23/15 23/32/23 24/33/24 16/24/16 
f 16/24/16 24/33/24 25/34/25 17/25/17 
f 17/25/17 25/34/25 18/35/18 10/26/10 
f 26/36/26 19/28/19 18/27/18 
f 26/37/26 20/29/20 19/28/19 
f 26/38/26 21/30/21 20/29/20 
f 26/39/26 22/31/22 21/30/21 
f 26/40/26 23/32/23 22/31/22 
f 26/41/26 24/33/24 23/32/23 
f 26/42/26 25/34/25 24/33/24 
f 26/43/26 18/35/18 25/34/25 
# 16 polygons - 16 triangles

