# 3ds Max Wavefront OBJ Exporter v0.97b - (c)2007 guruware
# File Created: 09.07.2020 11:52:24

mtllib cheese.mtl

#
# object Cheese
#

v  -13.5705 0.0000 0.4951
v  -12.5802 0.0000 -0.4951
v  13.0754 0.0000 -7.0866
v  13.0754 0.0000 7.0866
v  -13.5705 12.1973 0.4951
v  13.0754 12.1973 7.0866
v  13.0754 12.1973 -7.0866
v  -12.5802 12.1973 -0.4951
# 8 vertices

vn -0.8019 -0.5541 0.2232
vn -0.3756 -0.6523 -0.6584
vn 0.5055 -0.5653 -0.6518
vn 0.5084 -0.5657 0.6493
vn -0.8019 0.5541 0.2232
vn 0.5084 0.5657 0.6493
vn 0.5055 0.5653 -0.6518
vn -0.3756 0.6523 -0.6584
# 8 vertex normals

vt 0.8692 0.8356 0.0000
vt 0.8486 0.8555 0.0000
vt 0.3220 0.9800 0.0000
vt 0.3276 0.6905 0.0000
vt 0.3834 0.6719 0.0000
vt 0.9251 0.5267 0.0000
vt 0.9306 0.8162 0.0000
vt 0.4040 0.6917 0.0000
vt 0.0200 0.2213 0.0000
vt 0.5434 0.0200 0.0000
vt 0.6328 0.2526 0.0000
vt 0.1095 0.4539 0.0000
vt 0.6598 0.0416 0.0000
vt 0.9485 0.0200 0.0000
vt 0.9672 0.2685 0.0000
vt 0.6784 0.2901 0.0000
vt 0.0302 0.5197 0.0000
vt 0.5379 0.3322 0.0000
vt 0.6242 0.5660 0.0000
vt 0.1166 0.7535 0.0000
vt 0.1801 0.7468 0.0000
vt 0.2025 0.7646 0.0000
vt 0.0475 0.9597 0.0000
vt 0.0251 0.9420 0.0000
# 24 texture coords

o Cheese
g Cheese
usemtl cheese
s 2
f 1/1/1 2/2/2 3/3/3 4/4/4 
s 4
f 5/5/5 6/6/6 7/7/7 8/8/8 
s 8
f 1/9/1 4/10/4 6/11/6 5/12/5 
s 16
f 4/13/4 3/14/3 7/15/7 6/16/6 
s 32
f 3/17/3 2/18/2 8/19/8 7/20/7 
s 64
f 2/21/2 1/22/1 5/23/5 8/24/8 
# 6 polygons

