# 3ds Max Wavefront OBJ Exporter v0.97b - (c)2007 guruware
# File Created: 20.07.2020 12:40:26

mtllib door2.mtl

#
# object door
#

v  15.9765 4.3078 53.6665
v  15.9765 4.3078 16.8632
v  26.6409 4.3078 16.8632
v  26.6409 4.3078 53.6665
v  15.9765 53.1582 53.6665
v  26.6409 53.1582 53.6665
v  26.6409 53.1582 16.8632
v  15.9765 53.1582 16.8632
# 8 vertices

vn -0.5774 -0.5774 0.5774
vn -0.5774 -0.5774 -0.5774
vn 0.5774 -0.5774 -0.5774
vn 0.5774 -0.5774 0.5774
vn -0.5774 0.5774 0.5774
vn 0.5774 0.5774 0.5774
vn 0.5774 0.5774 -0.5774
vn -0.5774 0.5774 -0.5774
# 8 vertex normals

vt 0.3824 0.0181 0.0000
vt 0.7271 0.0263 0.0000
vt 0.7247 0.1262 0.0000
vt 0.3800 0.1180 0.0000
vt 0.7603 0.5103 0.0000
vt 0.9827 0.5103 0.0000
vt 0.9827 0.7327 0.0000
vt 0.7603 0.7327 0.0000
vt 0.7497 0.0149 0.0000
vt 0.8496 0.0152 0.0000
vt 0.8484 0.4728 0.0000
vt 0.7485 0.4726 0.0000
vt 0.3637 0.0120 0.0000
vt 0.3581 0.2688 0.0000
vt 0.0172 0.2613 0.0000
vt 0.0228 0.0045 0.0000
vt 0.8794 0.0217 0.0000
vt 0.9793 0.0220 0.0000
vt 0.9781 0.4797 0.0000
vt 0.8782 0.4794 0.0000
vt 0.0687 0.3572 0.0000
vt 0.6510 0.3572 0.0000
vt 0.6510 0.9395 0.0000
vt 0.0687 0.9395 0.0000
# 24 texture coords

o door
g door
usemtl wire_176026026
s 2
f 1/1/1 2/2/2 3/3/3 4/4/4 
s 4
f 5/5/5 6/6/6 7/7/7 8/8/8 
s 8
f 1/9/1 4/10/4 6/11/6 5/12/5 
s 16
f 4/13/4 3/14/3 7/15/7 6/16/6 
s 32
f 3/17/3 2/18/2 8/19/8 7/20/7 
s 64
f 2/21/2 1/22/1 5/23/5 8/24/8 
# 6 polygons

