# 3ds Max Wavefront OBJ Exporter v0.97b - (c)2007 guruware
# File Created: 20.07.2020 12:42:01

mtllib shoe top2.mtl

#
# object shoe_top
#

v  24.2623 15.0775 -64.1975
v  8.4915 36.6650 -72.8746
v  12.8302 42.1299 -55.3970
v  22.0289 37.2080 -48.0610
v  -9.7010 38.1681 -77.7257
v  -4.8423 43.3217 -58.9905
v  -28.1892 26.3357 -68.2687
v  -23.4527 38.4419 -63.1595
v  -28.1892 6.6675 -60.1263
v  -27.4092 8.2897 -43.9898
v  15.1636 45.9080 -39.2604
v  24.1759 36.7324 -31.9244
v  -4.6705 48.0948 -42.3944
v  -24.4141 39.7056 -35.8306
v  -22.0842 16.7830 -27.8093
v  13.0840 47.6624 -21.9571
v  23.8010 35.6896 -14.7314
v  -3.7720 53.4353 -25.3431
v  -16.7517 48.6428 -19.9020
v  -19.7812 24.9081 -11.7606
v  16.2710 49.8279 2.3411
v  21.8175 35.4254 4.5689
v  1.4851 66.1403 -4.5790
v  -15.3961 58.9099 4.5309
v  -15.7436 37.5294 8.6400
# 25 vertices

vn 0.7989 0.4049 -0.4447
vn 0.4676 0.8039 -0.3675
vn 0.4014 0.8580 -0.3203
vn 0.6101 0.7471 -0.2638
vn -0.2824 0.9411 -0.1856
vn -0.0242 0.9620 -0.2718
vn -0.9407 0.3142 0.1276
vn -0.5374 0.6605 -0.5244
vn -0.9987 0.0192 0.0463
vn -0.9707 0.2061 0.1238
vn 0.4960 0.8525 -0.1652
vn 0.7067 0.7073 0.0164
vn -0.1600 0.9470 -0.2786
vn -0.9020 0.4293 0.0459
vn -0.9703 -0.0142 0.2414
vn 0.5532 0.8296 -0.0752
vn 0.7206 0.6895 0.0737
vn -0.0632 0.9167 -0.3946
vn -0.7807 0.6152 -0.1091
vn -0.9850 0.1530 0.0795
vn 0.8712 0.4655 -0.1558
vn 0.9232 0.3710 0.1000
vn 0.1485 0.8263 -0.5432
vn -0.8692 0.4712 -0.1498
vn -0.9851 0.0478 0.1654
# 25 vertex normals

vt 0.6758 0.0749 -0.4819
vt 0.9281 0.0200 0.4819
vt 0.9342 0.1928 -0.4819
vt 0.8419 0.2650 -0.4819
vt 0.2054 0.1636 -0.5195
vt 0.3764 0.1371 0.5195
vt 0.3332 0.2989 -0.5195
vt 0.1545 0.3130 -0.5195
vt 0.5830 0.1962 -0.5195
vt 0.5096 0.2967 -0.5195
vt 0.7747 0.2337 -0.5195
vt 0.7894 0.3819 -0.5195
vt 0.9434 0.3462 -0.4819
vt 0.8253 0.4136 -0.4819
vt 0.1507 0.3283 -0.5195
vt 0.3126 0.4745 -0.5195
vt 0.1245 0.4678 -0.5195
vt 0.5192 0.5090 -0.5195
vt 0.7377 0.5525 -0.5195
vt 0.9800 0.5054 -0.4819
vt 0.8200 0.5718 -0.4819
vt 0.1221 0.4815 -0.5195
vt 0.2933 0.6636 -0.5195
vt 0.1149 0.6370 -0.5195
vt 0.4639 0.6971 -0.5195
vt 0.6831 0.7142 -0.5195
vt 0.9657 0.7301 -0.4819
vt 0.8238 0.7500 0.4819
vt 0.1140 0.6459 -0.5195
vt 0.2324 0.8987 -0.5195
vt 0.0200 0.8624 -0.5195
vt 0.4001 0.9271 -0.5195
vt 0.6013 0.9242 0.5195
# 33 texture coords

o shoe_top
g shoe_top
usemtl wire_027177148
s 8
f 1/1/1 2/2/2 3/3/3 4/4/4 
f 2/5/2 5/6/5 6/7/6 3/8/3 
f 5/6/5 7/9/7 8/10/8 6/7/6 
f 7/9/7 9/11/9 10/12/10 8/10/8 
f 4/4/4 3/3/3 11/13/11 12/14/12 
f 3/15/3 6/7/6 13/16/13 11/17/11 
f 6/7/6 8/10/8 14/18/14 13/16/13 
f 8/10/8 10/12/10 15/19/15 14/18/14 
f 12/14/12 11/13/11 16/20/16 17/21/17 
f 11/22/11 13/16/13 18/23/18 16/24/16 
f 13/16/13 14/18/14 19/25/19 18/23/18 
f 14/18/14 15/19/15 20/26/20 19/25/19 
f 17/21/17 16/20/16 21/27/21 22/28/22 
f 16/29/16 18/23/18 23/30/23 21/31/21 
f 18/23/18 19/25/19 24/32/24 23/30/23 
f 19/25/19 20/26/20 25/33/25 24/32/24 
# 16 polygons

