# 3ds Max Wavefront OBJ Exporter v0.97b - (c)2007 guruware
# File Created: 16.07.2020 12:31:23

mtllib pump door.mtl

#
# object door
#

v  67.0860 22.0387 21.2025
v  67.0860 22.0387 -21.4573
v  77.7503 22.0387 -21.4573
v  77.7503 22.0387 21.2025
v  67.0860 70.8891 21.2025
v  77.7503 70.8891 21.2025
v  77.7503 70.8891 -21.4573
v  67.0860 70.8891 -21.4573
# 8 vertices

vn -0.5774 -0.5774 0.5774
vn -0.5774 -0.5774 -0.5774
vn 0.5774 -0.5774 -0.5774
vn 0.5774 -0.5774 0.5774
vn -0.5774 0.5774 0.5774
vn 0.5774 0.5774 0.5774
vn 0.5774 0.5774 -0.5774
vn -0.5774 0.5774 -0.5774
# 8 vertex normals

vt 0.9787 0.6345 0.0000
vt 0.7714 0.9800 0.0000
vt 0.6850 0.9282 0.0000
vt 0.8923 0.5827 0.0000
vt 0.3781 0.5885 0.0000
vt 0.4644 0.5367 0.0000
vt 0.6717 0.8821 0.0000
vt 0.5854 0.9340 0.0000
vt 0.0405 0.5911 0.0000
vt 0.1252 0.5367 0.0000
vt 0.3744 0.9250 0.0000
vt 0.2896 0.9794 0.0000
vt 0.0200 0.0677 0.0000
vt 0.4220 0.0405 0.0000
vt 0.4531 0.5008 0.0000
vt 0.0511 0.5280 0.0000
vt 0.2042 0.5911 0.0000
vt 0.2889 0.5367 0.0000
vt 0.5381 0.9250 0.0000
vt 0.4533 0.9794 0.0000
vt 0.4650 0.0472 0.0000
vt 0.8670 0.0200 0.0000
vt 0.8982 0.4803 0.0000
vt 0.4962 0.5075 0.0000
# 24 texture coords

o door
g door
usemtl wire_176026026
s 2
f 1/1/1 2/2/2 3/3/3 4/4/4 
s 4
f 5/5/5 6/6/6 7/7/7 8/8/8 
s 8
f 1/9/1 4/10/4 6/11/6 5/12/5 
s 16
f 4/13/4 3/14/3 7/15/7 6/16/6 
s 32
f 3/17/3 2/18/2 8/19/8 7/20/7 
s 64
f 2/21/2 1/22/1 5/23/5 8/24/8 
# 6 polygons

