# 3ds Max Wavefront OBJ Exporter v0.97b - (c)2007 guruware
# File Created: 16.07.2020 12:32:09

mtllib pump rail 1.mtl

#
# object railing_1
#

v  94.7234 0.0000 25.4233
v  94.7234 0.0000 21.8270
v  98.8948 0.0000 21.8270
v  98.8948 0.0000 25.4233
v  94.7234 41.2010 25.4233
v  98.8948 41.2010 25.4233
v  98.8948 41.2010 21.8270
v  94.7234 41.2010 21.8270
v  98.8948 36.9703 25.4233
v  94.7234 36.9703 25.4233
v  98.8948 36.9703 21.8270
v  102.0623 36.9703 25.4233
v  102.0623 36.9703 21.8270
v  102.0623 41.2010 21.8270
v  102.0623 41.2010 25.4233
v  94.7234 36.9703 21.8270
v  68.1650 36.9703 21.8270
v  68.1650 36.9703 25.4233
v  68.1650 41.2010 25.4233
v  68.1650 41.2010 21.8270
v  83.2202 0.0000 25.4233
v  83.2202 0.0000 21.8270
v  87.3916 0.0000 21.8270
v  87.3916 0.0000 25.4233
v  83.2202 73.1332 25.4233
v  87.3916 73.1332 25.4233
v  87.3916 73.1332 21.8270
v  83.2202 73.1332 21.8270
v  71.4733 0.0000 25.4233
v  71.4733 0.0000 21.8270
v  75.6447 0.0000 21.8270
v  75.6447 0.0000 25.4233
v  71.4733 73.1390 25.4233
v  75.6447 73.1390 25.4233
v  75.6447 73.1390 21.8270
v  71.4733 73.1390 21.8270
# 36 vertices

vn -0.5774 -0.5774 0.5774
vn -0.5774 -0.5774 -0.5774
vn 0.5774 -0.5774 -0.5774
vn 0.5774 -0.5774 0.5774
vn 0.0000 0.7071 0.7071
vn 0.0000 0.7071 -0.7071
vn 0.3015 -0.3015 0.9045
vn -0.3015 -0.3015 0.9045
vn 0.3015 -0.3015 -0.9045
vn 0.5774 0.5774 -0.5774
vn 0.5774 0.5774 0.5774
vn -0.3015 -0.3015 -0.9045
vn -0.5774 0.5774 0.5774
vn -0.5774 0.5774 -0.5774
# 14 vertex normals

vt 0.3216 0.7379 0.0000
vt 0.3198 0.7622 0.0000
vt 0.2915 0.7601 0.0000
vt 0.2933 0.7358 0.0000
vt 0.2915 0.7093 0.0000
vt 0.3198 0.7072 0.0000
vt 0.3216 0.7315 0.0000
vt 0.2933 0.7336 0.0000
vt 0.6041 0.9731 0.0000
vt 0.6042 0.9346 0.0000
vt 0.9460 0.9354 0.0000
vt 0.9459 0.9740 0.0000
vt 0.9851 0.9355 0.0000
vt 0.9850 0.9741 0.0000
vt 0.3341 0.0171 0.0000
vt 0.3657 0.0172 0.0000
vt 0.3654 0.3424 0.0000
vt 0.3338 0.3424 0.0000
vt 0.3481 0.3563 0.0000
vt 0.3524 0.3576 0.0000
vt 0.3514 0.3625 0.0000
vt 0.3472 0.3612 0.0000
vt 0.1660 0.9713 0.0000
vt 0.1657 0.9328 0.0000
vt 0.5075 0.9306 0.0000
vt 0.5077 0.9692 0.0000
vt 0.5466 0.9304 0.0000
vt 0.5468 0.9689 0.0000
vt 0.0271 0.0247 0.0000
vt 0.0813 0.0250 0.0000
vt 0.0778 0.5828 0.0000
vt 0.0235 0.5825 0.0000
vt 0.1794 0.7606 0.0000
vt 0.2335 0.7648 0.0000
vt 0.2286 0.8285 0.0000
vt 0.1745 0.8242 0.0000
vt 0.3657 0.3765 0.0000
vt 0.3341 0.3764 0.0000
vt 0.2303 0.4224 0.0000
vt 0.1761 0.4215 0.0000
vt 0.1827 0.0208 0.0000
vt 0.2369 0.0217 0.0000
vt 0.1123 0.4204 0.0000
vt 0.1189 0.0198 0.0000
vt 0.0752 0.9836 0.0000
vt 0.0210 0.9832 0.0000
vt 0.2942 0.4234 0.0000
vt 0.3008 0.0228 0.0000
vt 0.3216 0.6521 0.0000
vt 0.3198 0.6764 0.0000
vt 0.2915 0.6744 0.0000
vt 0.2933 0.6500 0.0000
vt 0.2838 0.8233 0.0000
vt 0.3121 0.8212 0.0000
vt 0.3139 0.8456 0.0000
vt 0.2856 0.8477 0.0000
vt 0.5390 0.0138 0.0000
vt 0.5888 0.0141 0.0000
vt 0.5831 0.8874 0.0000
vt 0.5333 0.8871 0.0000
vt 0.9367 0.0182 0.0000
vt 0.9796 0.0188 0.0000
vt 0.9671 0.8920 0.0000
vt 0.9242 0.8914 0.0000
vt 0.6107 0.0221 0.0000
vt 0.6605 0.0224 0.0000
vt 0.6549 0.8956 0.0000
vt 0.6051 0.8953 0.0000
vt 0.8690 0.0206 0.0000
vt 0.9119 0.0212 0.0000
vt 0.8994 0.8944 0.0000
vt 0.8565 0.8938 0.0000
vt 0.3216 0.6807 0.0000
vt 0.3198 0.7050 0.0000
vt 0.2915 0.7029 0.0000
vt 0.2933 0.6786 0.0000
vt 0.2841 0.7810 0.0000
vt 0.3124 0.7789 0.0000
vt 0.3142 0.8033 0.0000
vt 0.2859 0.8053 0.0000
vt 0.4673 0.0102 0.0000
vt 0.5171 0.0106 0.0000
vt 0.5114 0.8839 0.0000
vt 0.4616 0.8836 0.0000
vt 0.7042 0.0176 0.0000
vt 0.7472 0.0182 0.0000
vt 0.7347 0.8914 0.0000
vt 0.6917 0.8908 0.0000
vt 0.3848 0.0200 0.0000
vt 0.4346 0.0203 0.0000
vt 0.4290 0.8937 0.0000
vt 0.3792 0.8933 0.0000
vt 0.7860 0.0245 0.0000
vt 0.8289 0.0252 0.0000
vt 0.8165 0.8984 0.0000
vt 0.7735 0.8978 0.0000
# 96 texture coords

o railing_1
g railing_1
usemtl wire_056041028
s 2
f 1/1/1 2/2/2 3/3/3 4/4/4 
s 4
f 5/5/5 6/6/5 7/7/6 8/8/6 
s 8
f 1/9/1 4/10/4 9/11/7 10/12/8 
f 10/12/8 9/11/7 6/13/5 5/14/5 
s 16
f 4/15/4 3/16/3 11/17/9 9/18/7 
f 12/19/4 13/20/3 14/21/10 15/22/11 
s 32
f 3/23/3 2/24/2 16/25/12 11/26/9 
f 11/26/9 16/25/12 8/27/6 7/28/6 
s 64
f 2/29/2 1/30/1 10/31/8 16/32/12 
f 17/33/2 18/34/1 19/35/13 20/36/14 
s off
f 7/37/6 6/38/5 15/22/11 14/21/10 
f 6/38/5 9/18/7 12/19/4 15/22/11 
f 9/18/7 11/17/9 13/20/3 12/19/4 
f 11/17/9 7/37/6 14/21/10 13/20/3 
f 5/39/5 8/40/6 20/41/14 19/42/13 
f 8/40/6 16/43/12 17/44/2 20/41/14 
f 16/32/12 10/31/8 18/45/1 17/46/2 
f 10/47/8 5/39/5 19/42/13 18/48/1 
s 2
f 21/49/1 22/50/2 23/51/3 24/52/4 
s 4
f 25/53/13 26/54/11 27/55/10 28/56/14 
s 8
f 21/57/1 24/58/4 26/59/11 25/60/13 
s 16
f 24/61/4 23/62/3 27/63/10 26/64/11 
s 32
f 23/65/3 22/66/2 28/67/14 27/68/10 
s 64
f 22/69/2 21/70/1 25/71/13 28/72/14 
s 2
f 29/73/1 30/74/2 31/75/3 32/76/4 
s 4
f 33/77/13 34/78/11 35/79/10 36/80/14 
s 8
f 29/81/1 32/82/4 34/83/11 33/84/13 
s 16
f 32/85/4 31/86/3 35/87/10 34/88/11 
s 32
f 31/89/3 30/90/2 36/91/14 35/92/10 
s 64
f 30/93/2 29/94/1 33/95/13 36/96/14 
# 30 polygons

