# 3ds Max Wavefront OBJ Exporter v0.97b - (c)2007 guruware
# File Created: 16.07.2020 12:32:31

mtllib pump stairs.mtl

#
# object stairs
#

v  19.7888 0.0000 21.4503
v  19.7888 0.0000 -21.7522
v  84.7640 0.0000 -21.7522
v  84.7640 0.0000 21.4503
v  19.7888 22.1724 21.4503
v  84.7640 22.1724 21.4503
v  84.7640 22.1724 -21.7522
v  19.7888 22.1724 -21.7522
v  84.7640 5.5431 21.4503
v  19.7888 5.5431 21.4503
v  84.7640 11.0862 21.4503
v  19.7888 11.0862 21.4503
v  84.7640 16.6293 21.4503
v  19.7888 16.6293 21.4503
v  103.9263 0.0000 21.4503
v  103.9263 0.0000 -21.7522
v  103.9263 5.5431 -21.7522
v  103.9263 5.5431 21.4503
v  97.7131 5.5431 21.4503
v  97.7131 5.5431 -21.7522
v  97.7131 11.0862 -21.7522
v  97.7131 11.0862 21.4503
v  91.2563 11.0862 21.4503
v  91.2563 11.0862 -21.7522
v  91.2563 16.6293 -21.7522
v  91.2563 16.6293 21.4503
v  84.7640 16.6293 -21.7522
v  19.7888 5.5431 -21.7522
v  84.7640 5.5431 -21.7522
v  19.7888 11.0862 -21.7522
v  84.7640 11.0862 -21.7522
v  19.7888 16.6293 -21.7522
v  91.2563 0.0000 -21.7522
v  91.2563 0.0000 21.4503
v  91.2563 5.5431 -21.7522
v  91.2563 5.5431 21.4503
v  97.7131 0.0000 21.4503
v  97.7131 0.0000 -21.7522
# 38 vertices

vn -0.5774 -0.5774 0.5774
vn -0.5774 -0.5774 -0.5774
vn 0.0000 -0.7071 -0.7071
vn 0.0000 -0.7071 0.7071
vn -0.5774 0.5774 0.5774
vn 0.5774 0.5774 0.5774
vn 0.5774 0.5774 -0.5774
vn -0.5774 0.5774 -0.5774
vn 0.0000 0.0000 1.0000
vn -0.7071 0.0000 0.7071
vn 0.3015 0.3015 0.9045
vn 0.5774 -0.5774 0.5774
vn 0.5774 -0.5774 -0.5774
vn 0.3015 0.3015 -0.9045
vn -0.7071 0.0000 -0.7071
vn 0.0000 0.0000 -1.0000
# 16 vertex normals

vt 0.6756 0.8122 0.0000
vt 0.6807 0.9349 0.0000
vt 0.4961 0.9426 0.0000
vt 0.4911 0.8198 0.0000
vt 0.0262 0.6198 0.0000
vt 0.0247 0.0291 0.0000
vt 0.4174 0.0282 0.0000
vt 0.4189 0.6188 0.0000
vt 0.0100 0.8278 0.0000
vt 0.4473 0.8262 0.0000
vt 0.4474 0.8636 0.0000
vt 0.0102 0.8651 0.0000
vt 0.4476 0.9009 0.0000
vt 0.0103 0.9024 0.0000
vt 0.4477 0.9382 0.0000
vt 0.0104 0.9397 0.0000
vt 0.4478 0.9755 0.0000
vt 0.0106 0.9770 0.0000
vt 0.4841 0.0340 0.0000
vt 0.8767 0.0208 0.0000
vt 0.8783 0.0712 0.0000
vt 0.4858 0.0843 0.0000
vt 0.4877 0.1408 0.0000
vt 0.8802 0.1276 0.0000
vt 0.8819 0.1780 0.0000
vt 0.4894 0.1912 0.0000
vt 0.4914 0.2498 0.0000
vt 0.8839 0.2367 0.0000
vt 0.8856 0.2870 0.0000
vt 0.4930 0.3002 0.0000
vt 0.4950 0.3592 0.0000
vt 0.8876 0.3460 0.0000
vt 0.8893 0.3964 0.0000
vt 0.4967 0.4095 0.0000
vt -0.0021 0.6471 0.0000
vt 0.4351 0.6355 0.0000
vt 0.4360 0.6728 0.0000
vt -0.0011 0.6844 0.0000
vt 0.4370 0.7101 0.0000
vt -0.0001 0.7217 0.0000
vt 0.4380 0.7474 0.0000
vt 0.0009 0.7590 0.0000
vt 0.4390 0.7846 0.0000
vt 0.0019 0.7962 0.0000
vt 0.7120 0.6865 0.0000
vt 0.9499 0.6893 0.0000
vt 0.9495 0.7198 0.0000
vt 0.7116 0.7170 0.0000
vt 0.9492 0.7503 0.0000
vt 0.7112 0.7475 0.0000
vt 0.9488 0.7809 0.0000
vt 0.7109 0.7781 0.0000
vt 0.9485 0.8114 0.0000
vt 0.7105 0.8086 0.0000
vt 0.7152 0.8340 0.0000
vt 0.9531 0.8340 0.0000
vt 0.9531 0.8698 0.0000
vt 0.7152 0.8698 0.0000
vt 0.8823 0.4685 0.0000
vt 0.8858 0.5151 0.0000
vt 0.8314 0.5193 0.0000
vt 0.8278 0.4728 0.0000
vt 0.8894 0.5616 0.0000
vt 0.8350 0.5658 0.0000
vt 0.8930 0.6081 0.0000
vt 0.8386 0.6123 0.0000
vt 0.6061 0.5909 0.0000
vt 0.5568 0.5975 0.0000
vt 0.5544 0.5506 0.0000
vt 0.6059 0.5530 0.0000
vt 0.5004 0.5085 0.0000
vt 0.5524 0.5062 0.0000
vt 0.4985 0.4641 0.0000
vt 0.5505 0.4618 0.0000
vt 0.6041 0.5040 0.0000
vt 0.6061 0.5484 0.0000
vt 0.6022 0.4596 0.0000
vt 0.9531 0.9053 0.0000
vt 0.7152 0.9053 0.0000
vt 0.7772 0.5235 0.0000
vt 0.7736 0.4769 0.0000
vt 0.7808 0.5700 0.0000
vt 0.6520 0.4574 0.0000
vt 0.6539 0.5018 0.0000
vt 0.9531 0.9395 0.0000
vt 0.7152 0.9395 0.0000
vt 0.7250 0.5275 0.0000
vt 0.7214 0.4810 0.0000
# 88 texture coords

o stairs
g stairs
usemtl wire_056041028
s 2
f 1/1/1 2/2/2 3/3/3 4/4/4 
s 4
f 5/5/5 6/6/6 7/7/7 8/8/8 
s 8
f 1/9/1 4/10/4 9/11/9 10/12/10 
f 10/12/10 9/11/9 11/13/9 12/14/10 
f 12/14/10 11/13/9 13/15/11 14/16/10 
f 14/16/10 13/15/11 6/17/6 5/18/5 
s 16
f 15/19/12 16/20/13 17/21/7 18/22/6 
f 19/23/11 20/24/14 21/25/7 22/26/6 
f 23/27/11 24/28/14 25/29/7 26/30/6 
f 13/31/11 27/32/14 7/33/7 6/34/6 
s 32
f 3/35/3 2/36/2 28/37/15 29/38/16 
f 29/38/16 28/37/15 30/39/15 31/40/16 
f 31/40/16 30/39/15 32/41/15 27/42/14 
f 27/42/14 32/41/15 8/43/8 7/44/7 
s 64
f 2/45/2 1/46/1 10/47/10 28/48/15 
f 28/48/15 10/47/10 12/49/10 30/50/15 
f 30/50/15 12/49/10 14/51/10 32/52/15 
f 32/52/15 14/51/10 5/53/5 8/54/8 
s off
f 4/55/4 3/56/3 33/57/3 34/58/4 
f 3/59/3 29/60/16 35/61/16 33/62/3 
f 29/60/16 31/63/16 24/64/14 35/61/16 
f 31/63/16 27/65/14 25/66/7 24/64/14 
f 27/32/14 13/31/11 26/30/6 25/29/7 
f 13/67/11 11/68/9 23/69/11 26/70/6 
f 11/68/9 9/71/9 36/72/9 23/69/11 
f 9/71/9 4/73/4 34/74/4 36/72/9 
f 24/28/14 23/27/11 22/26/6 21/25/7 
f 23/69/11 36/72/9 19/75/11 22/76/6 
f 36/72/9 34/74/4 37/77/4 19/75/11 
f 34/58/4 33/57/3 38/78/3 37/79/4 
f 33/62/3 35/61/16 20/80/14 38/81/3 
f 35/61/16 24/64/14 21/82/7 20/80/14 
f 20/24/14 19/23/11 18/22/6 17/21/7 
f 19/75/11 37/77/4 15/83/12 18/84/6 
f 37/79/4 38/78/3 16/85/13 15/86/12 
f 38/81/3 20/80/14 17/87/7 16/88/13 
# 36 polygons

