# 3ds Max Wavefront OBJ Exporter v0.97b - (c)2007 guruware
# File Created: 09.07.2020 11:52:35

mtllib large rock.mtl

#
# object larger_rock
#

v  0.0000 60.7042 -0.0000
v  -9.3307 60.5618 2.3971
v  -3.0760 55.6589 10.0720
v  4.9345 50.9375 9.9552
v  10.0171 50.9375 2.7255
v  10.2257 50.9375 -4.8040
v  2.2020 50.9375 -12.1535
v  -4.9345 50.9375 -9.9552
v  -12.7833 55.0163 -3.7002
v  -15.3953 31.3937 13.2235
v  0.3324 31.3937 17.1511
v  15.7718 31.3937 12.8066
v  17.6172 31.3937 0.3484
v  17.6172 31.3937 -17.1511
v  -1.0309 31.3937 -17.1511
v  -9.0553 31.3937 -19.6711
v  -17.6172 31.3937 -2.6137
v  -21.3695 0.0000 20.4468
v  0.0000 0.0000 -0.0000
v  19.7724 0.0000 19.9444
v  0.4174 0.0000 21.5364
v  21.4560 0.0000 -16.1684
v  23.4852 0.0000 5.3780
v  -12.1093 0.0000 -21.4436
v  2.4507 0.0000 -23.9005
v  -21.7709 0.0000 -1.4492
# 26 vertices

vn 0.2846 0.9548 -0.0856
vn -0.4939 0.8591 0.1345
vn -0.0996 0.6705 0.7352
vn 0.4451 0.4949 0.7463
vn 0.6096 0.7577 0.2327
vn 0.7548 0.6039 -0.2562
vn 0.2123 0.6820 -0.6999
vn -0.2675 0.5967 -0.7566
vn -0.7714 0.5075 -0.3838
vn -0.6989 0.3251 0.6370
vn 0.0236 0.2094 0.9775
vn 0.7333 0.3407 0.5884
vn 0.9595 0.2742 0.0644
vn 0.6402 0.3010 -0.7068
vn 0.1606 0.2211 -0.9619
vn -0.3607 0.2666 -0.8938
vn -0.9747 0.1565 -0.1594
vn -0.6255 -0.4733 0.6202
vn 0.0000 -1.0000 -0.0000
vn 0.5479 -0.5020 0.6692
vn 0.0123 -0.6411 0.7674
vn 0.6710 -0.5758 -0.4672
vn 0.8001 -0.5952 0.0744
vn -0.4980 -0.5777 -0.6468
vn 0.1017 -0.5649 -0.8189
vn -0.7736 -0.6126 -0.1622
# 26 vertex normals

vt 0.5117 0.8192 -2.9033
vt 0.4390 0.8106 -2.9033
vt 0.4895 0.7328 -2.9033
vt 0.5695 0.7197 -2.9033
vt 0.6162 0.7826 -2.9033
vt 0.6243 0.8492 1.1813
vt 0.5691 0.9285 -2.9033
vt 0.5025 0.9343 -2.9033
vt 0.4201 0.8854 2.9033
vt 0.4564 0.0005 -6.8566
vt 0.7273 0.0412 -6.8566
vt 0.6923 0.1723 -6.8566
vt 0.4952 0.0877 -6.8566
vt 0.5135 0.1657 -6.8566
vt 0.6496 0.2903 -6.8566
vt 0.5857 0.3624 -6.8566
vt 0.4727 0.2308 -6.8566
vt 0.4290 0.2788 -1.2768
vt 0.4993 0.4522 -6.8566
vt 0.3776 0.4959 -6.8566
vt 0.3450 0.3296 -6.8566
vt 0.2826 0.3475 -6.8566
vt 0.3197 0.5225 -6.8566
vt 0.1735 0.5324 -6.8566
vt 0.1882 0.3215 6.8566
vt 0.9914 0.9547 -6134.5391
vt 0.8159 0.7887 -6134.5391
vt 0.9706 0.6192 6134.5391
vt 0.9914 0.7765 6134.5391
vt 0.6752 0.6202 6134.5391
vt 0.8502 0.5949 6134.5391
vt 0.6458 0.8963 6134.5391
vt 0.6198 0.7784 6134.5391
vt 0.8130 0.9669 6134.5391
vt 0.9995 0.0885 -6.8566
vt 0.9375 0.2617 -6.8566
vt 0.8753 0.4159 -6.8566
vt 0.7920 0.5121 -6.8566
vt 0.6569 0.6334 -6.8566
vt 0.4973 0.7238 -6.8566
vt 0.3790 0.7637 -6.8566
vt 0.1896 0.7975 -6.8566
vt 0.0354 0.5336 -6.8566
vt 0.1305 0.2659 -6.8566
vt 0.0005 0.8156 -6.8566
# 45 texture coords

o larger_rock
g larger_rock
usemtl large_rock
s 1
f 1/1/1 2/2/2 3/3/3 4/4/4 
f 1/1/1 4/4/4 5/5/5 6/6/6 
f 1/1/1 6/6/6 7/7/7 8/8/8 
f 1/1/1 8/8/8 9/9/9 2/2/2 
f 2/10/2 10/11/10 11/12/11 3/13/3 
f 4/14/4 12/15/12 13/16/13 5/17/5 
f 6/18/6 14/19/14 15/20/15 7/21/7 
f 8/22/8 16/23/16 17/24/17 9/25/9 
f 18/26/18 19/27/19 20/28/20 21/29/21 
f 20/28/20 19/27/19 22/30/22 23/31/23 
f 22/30/22 19/27/19 24/32/24 25/33/25 
f 24/32/24 19/27/19 18/26/18 26/34/26 
f 10/11/10 18/35/18 21/36/21 11/12/11 
f 12/15/12 20/37/20 23/38/23 13/16/13 
f 14/19/14 22/39/22 25/40/25 15/20/15 
f 16/23/16 24/41/24 26/42/26 17/24/17 
f 15/20/15 16/23/16 8/22/8 7/21/7 
f 25/40/25 24/41/24 16/23/16 15/20/15 
f 13/16/13 14/19/14 6/18/6 5/17/5 
f 23/38/23 22/39/22 14/19/14 13/16/13 
f 11/12/11 12/15/12 4/14/4 3/13/3 
f 21/36/21 20/37/20 12/15/12 11/12/11 
f 17/24/17 10/43/10 2/44/2 9/25/9 
f 26/42/26 18/45/18 10/43/10 17/24/17 
# 24 polygons

