# 3ds Max Wavefront OBJ Exporter v0.97b - (c)2007 guruware
# File Created: 09.07.2020 11:53:16

mtllib rolling stick.mtl

#
# object Rolling_Stick
#

v  -33.5897 -7.0245 2.5567
v  -34.1084 -5.7264 4.8050
v  -33.6622 -3.7376 6.4738
v  -33.2882 -1.2981 7.3617
v  -33.5092 1.2981 7.3617
v  -33.0650 3.7376 6.4738
v  -33.4390 5.7264 4.8050
v  -33.2181 7.0245 2.5567
v  -33.2181 7.4753 -0.0000
v  -33.2181 7.0245 -2.5567
v  -33.4390 5.7264 -4.8050
v  -33.0650 3.7376 -6.4738
v  -33.5092 1.2981 -7.3617
v  -33.2882 -1.2981 -7.3617
v  -33.6622 -3.7376 -6.4738
v  -34.1084 -5.7264 -4.8050
v  -33.5897 -7.0245 -2.5567
v  -33.5897 -7.4753 -0.0000
v  -28.3794 -7.0245 -2.5567
v  -28.3794 -7.4753 -0.0000
v  -28.3794 -5.7264 -4.8050
v  -28.3794 -3.7376 -6.4738
v  -28.3794 -1.2981 -7.3617
v  -28.3794 1.2981 -7.3617
v  -28.3794 3.7376 -6.4738
v  -28.3794 5.7264 -4.8050
v  -28.3794 7.0245 -2.5567
v  -28.3794 7.4753 -0.0000
v  -28.3794 7.0245 2.5567
v  -28.3794 5.7264 4.8050
v  -28.3794 3.7376 6.4738
v  -28.3794 1.2981 7.3617
v  -28.3794 -1.2981 7.3617
v  -28.3794 -3.7376 6.4738
v  -28.3794 -5.7264 4.8050
v  -28.3794 -7.0245 2.5567
v  29.3565 -7.0244 -2.5567
v  29.3565 -7.4753 -0.0000
v  29.3565 -5.7264 -4.8050
v  29.3565 -3.7376 -6.4738
v  29.3565 -1.2981 -7.3617
v  29.3565 1.2981 -7.3617
v  29.3565 3.7376 -6.4738
v  29.3565 5.7264 -4.8050
v  29.3565 7.0245 -2.5567
v  29.3565 7.4753 -0.0000
v  29.3565 7.0245 2.5567
v  29.3565 5.7264 4.8050
v  29.3565 3.7376 6.4738
v  29.3565 1.2981 7.3617
v  29.3565 -1.2981 7.3617
v  29.3565 -3.7376 6.4738
v  29.3565 -5.7264 4.8050
v  29.3565 -7.0244 2.5567
v  34.5626 -7.0244 -2.5567
v  34.5626 -7.4753 -0.0000
v  34.5626 -5.7264 -4.8050
v  34.6742 -3.7376 -6.4738
v  33.8933 -1.2981 -7.3617
v  33.2252 1.2981 -7.3617
v  32.8198 3.7376 -6.4738
v  31.8530 5.7264 -4.8050
v  31.5952 7.0245 -2.5567
v  31.7466 7.4753 -0.0000
v  31.5952 7.0245 2.5567
v  31.8530 5.7264 4.8050
v  32.8198 3.7376 6.4738
v  33.2252 1.2981 7.3617
v  33.8933 -1.2981 7.3617
v  34.6742 -3.7376 6.4738
v  34.5626 -5.7264 4.8050
v  34.5626 -7.0244 2.5567
# 72 vertices

vn -0.4534 -0.8502 0.2675
vn -0.9126 -0.3199 0.2546
vn -0.6333 -0.3073 0.7103
vn -0.4267 -0.1463 0.8925
vn -0.8696 0.1172 0.4797
vn -0.3560 0.4708 0.8073
vn -0.8566 0.3809 0.3481
vn -0.5752 0.7759 0.2593
vn -0.6701 0.7423 0.0000
vn -0.5751 0.7759 -0.2593
vn -0.8566 0.3809 -0.3481
vn -0.3560 0.4708 -0.8073
vn -0.8696 0.1172 -0.4797
vn -0.4267 -0.1463 -0.8925
vn -0.6333 -0.3073 -0.7103
vn -0.9126 -0.3199 -0.2546
vn -0.4534 -0.8502 -0.2675
vn -0.6701 -0.7423 0.0000
vn 0.0000 -0.9397 -0.3420
vn 0.0000 -1.0000 0.0000
vn 0.0000 -0.7660 -0.6428
vn 0.0000 -0.5000 -0.8660
vn 0.0000 -0.1736 -0.9848
vn 0.0000 0.1736 -0.9848
vn 0.0000 0.5000 -0.8660
vn 0.0000 0.7660 -0.6428
vn 0.0000 0.9397 -0.3420
vn 0.0000 1.0000 -0.0000
vn 0.0000 0.9397 0.3420
vn -0.0000 0.7660 0.6428
vn 0.0000 0.5000 0.8660
vn 0.0000 0.1736 0.9848
vn 0.0000 -0.1737 0.9848
vn 0.0000 -0.5000 0.8660
vn 0.0000 -0.7660 0.6428
vn 0.0000 -0.9397 0.3420
vn -0.0000 -0.9397 -0.3420
vn -0.0000 -1.0000 0.0000
vn -0.0000 -0.1736 -0.9848
vn -0.0000 0.1737 -0.9848
vn -0.0000 0.7660 -0.6428
vn 0.0000 0.7660 0.6428
vn -0.0000 -0.1736 0.9848
vn -0.0000 -0.5000 0.8660
vn -0.0000 -0.7660 0.6428
vn 0.6701 -0.6975 -0.2539
vn 0.6701 -0.7423 0.0000
vn 0.6226 -0.6070 -0.4938
vn 0.8980 -0.1307 -0.4202
vn 0.6042 0.0117 -0.7968
vn 0.5500 0.2431 -0.7990
vn 0.8234 0.4311 -0.3690
vn 0.3859 0.7542 -0.5312
vn 0.4967 0.8186 -0.2884
vn 0.7819 0.6234 -0.0000
vn 0.4967 0.8186 0.2884
vn 0.3859 0.7542 0.5312
vn 0.8234 0.4311 0.3690
vn 0.5500 0.2431 0.7990
vn 0.6042 0.0117 0.7968
vn 0.8980 -0.1307 0.4202
vn 0.6226 -0.6070 0.4938
vn 0.6700 -0.6976 0.2539
# 63 vertex normals

vt 0.5989 0.9065 4.5171
vt 0.5879 0.8604 -4.5171
vt 0.5944 0.8137 4.5171
vt 0.6162 0.7722 2.4692
vt 0.6486 0.7386 4.5171
vt 0.6925 0.7214 4.5171
vt 0.7392 0.7171 4.5171
vt 0.7835 0.7320 4.5171
vt 0.8210 0.7594 4.5171
vt 0.8468 0.7980 4.5171
vt 0.8594 0.8429 4.5171
vt 0.8528 0.8894 4.5171
vt 0.8337 0.9325 4.5171
vt 0.7988 0.9634 4.5171
vt 0.7557 0.9821 4.5171
vt 0.7087 0.9852 4.5171
vt 0.6630 0.9727 4.5171
vt 0.6264 0.9439 4.5171
vt 0.0302 0.3652 2.3520
vt 0.0302 0.3291 2.3520
vt 0.1025 0.3291 2.3520
vt 0.1025 0.3652 2.3520
vt 0.0230 0.2931 2.3520
vt 0.1025 0.2931 2.3520
vt 0.0292 0.2570 2.3520
vt 0.1025 0.2570 2.3520
vt 0.0343 0.2210 2.3520
vt 0.1025 0.2210 2.3520
vt 0.0313 0.1850 2.3520
vt 0.1025 0.1850 2.3520
vt 0.0374 0.1489 2.3520
vt 0.1025 0.1489 2.3520
vt 0.0322 0.1129 2.3520
vt 0.1025 0.1129 2.3520
vt 0.0353 0.0769 2.3520
vt 0.1025 0.0769 2.3520
vt 0.0353 0.0408 2.3520
vt 0.1025 0.0408 2.3520
vt 0.0353 0.6895 2.3520
vt 0.0353 0.6535 2.3520
vt 0.1025 0.6535 2.3520
vt 0.1025 0.6895 2.3520
vt 0.0322 0.6174 2.3520
vt 0.1025 0.6174 2.3520
vt 0.0374 0.5814 2.3520
vt 0.1025 0.5814 2.3520
vt 0.0313 0.5453 2.3520
vt 0.1025 0.5453 2.3520
vt 0.0343 0.5093 2.3520
vt 0.1025 0.5093 2.3520
vt 0.0291 0.4733 2.3520
vt 0.1025 0.4733 2.3520
vt 0.0230 0.4372 -2.3520
vt 0.1025 0.4372 2.3520
vt 0.0302 0.4012 2.3520
vt 0.1025 0.4012 2.3520
vt 0.9039 0.3291 2.3520
vt 0.9039 0.3651 2.3520
vt 0.9039 0.2931 2.3520
vt 0.9039 0.2570 2.3520
vt 0.9039 0.2210 2.3520
vt 0.9039 0.1850 2.3520
vt 0.9039 0.1489 2.3520
vt 0.9039 0.1129 2.3520
vt 0.9039 0.0769 2.3520
vt 0.9039 0.0408 2.3520
vt 0.9039 0.6534 2.3520
vt 0.9039 0.6895 2.3520
vt 0.9039 0.6174 2.3520
vt 0.9039 0.5814 2.3520
vt 0.9039 0.5453 2.3520
vt 0.9039 0.5093 2.3520
vt 0.9039 0.4733 2.3520
vt 0.9039 0.4372 2.3520
vt 0.9039 0.4012 2.3520
vt 0.9762 0.3291 2.3520
vt 0.9762 0.3651 2.3520
vt 0.9762 0.2931 2.3520
vt 0.9777 0.2570 -0.7183
vt 0.9669 0.2210 2.3520
vt 0.9576 0.1850 2.3520
vt 0.9520 0.1489 2.3520
vt 0.9386 0.1129 2.3520
vt 0.9350 0.0769 2.3520
vt 0.9371 0.0408 2.3520
vt 0.9350 0.6534 2.3520
vt 0.9371 0.6895 2.3520
vt 0.9386 0.6174 2.3520
vt 0.9520 0.5814 2.3520
vt 0.9576 0.5453 2.3520
vt 0.9669 0.5093 2.3520
vt 0.9777 0.4733 2.3520
vt 0.9762 0.4372 2.3520
vt 0.9762 0.4012 2.3520
vt 0.3570 0.7608 3.2535
vt 0.3803 0.8010 -3.2535
vt 0.3883 0.8468 3.2535
vt 0.3803 0.8926 -1.7312
vt 0.3598 0.9343 3.2535
vt 0.3207 0.9631 3.2535
vt 0.2757 0.9797 3.2535
vt 0.2286 0.9796 3.2535
vt 0.1811 0.9655 3.2535
vt 0.1457 0.9350 3.2535
vt 0.1221 0.8949 3.2535
vt 0.1146 0.8490 3.2535
vt 0.1218 0.8028 3.2535
vt 0.1490 0.7614 3.2535
vt 0.1852 0.7313 3.2535
vt 0.2304 0.7153 3.2535
vt 0.2789 0.7122 3.2535
vt 0.3214 0.7309 3.2535
# 112 texture coords

o Rolling_Stick
g Rolling_Stick
usemtl stick
s 1
f 1/1/1 2/2/2 3/3/3 4/4/4 5/5/5 6/6/6 7/7/7 8/8/8 9/9/9 10/10/10 11/11/11 12/12/12 13/13/13 14/14/14 15/15/15 16/16/16 17/17/17 18/18/18 
s 8
f 18/19/18 17/20/17 19/21/19 20/22/20 
f 17/20/17 16/23/16 21/24/21 19/21/19 
f 16/23/16 15/25/15 22/26/22 21/24/21 
f 15/25/15 14/27/14 23/28/23 22/26/22 
f 14/27/14 13/29/13 24/30/24 23/28/23 
f 13/29/13 12/31/12 25/32/25 24/30/24 
f 12/31/12 11/33/11 26/34/26 25/32/25 
f 11/33/11 10/35/10 27/36/27 26/34/26 
f 10/35/10 9/37/9 28/38/28 27/36/27 
f 9/39/9 8/40/8 29/41/29 28/42/28 
f 8/40/8 7/43/7 30/44/30 29/41/29 
f 7/43/7 6/45/6 31/46/31 30/44/30 
f 6/45/6 5/47/5 32/48/32 31/46/31 
f 5/47/5 4/49/4 33/50/33 32/48/32 
f 4/49/4 3/51/3 34/52/34 33/50/33 
f 3/51/3 2/53/2 35/54/35 34/52/34 
f 2/53/2 1/55/1 36/56/36 35/54/35 
f 1/55/1 18/19/18 20/22/20 36/56/36 
f 20/22/20 19/21/19 37/57/37 38/58/38 
f 19/21/19 21/24/21 39/59/21 37/57/37 
f 21/24/21 22/26/22 40/60/22 39/59/21 
f 22/26/22 23/28/23 41/61/39 40/60/22 
f 23/28/23 24/30/24 42/62/40 41/61/39 
f 24/30/24 25/32/25 43/63/25 42/62/40 
f 25/32/25 26/34/26 44/64/41 43/63/25 
f 26/34/26 27/36/27 45/65/27 44/64/41 
f 27/36/27 28/38/28 46/66/28 45/65/27 
f 28/42/28 29/41/29 47/67/29 46/68/28 
f 29/41/29 30/44/30 48/69/42 47/67/29 
f 30/44/30 31/46/31 49/70/31 48/69/42 
f 31/46/31 32/48/32 50/71/32 49/70/31 
f 32/48/32 33/50/33 51/72/43 50/71/32 
f 33/50/33 34/52/34 52/73/44 51/72/43 
f 34/52/34 35/54/35 53/74/45 52/73/44 
f 35/54/35 36/56/36 54/75/36 53/74/45 
f 36/56/36 20/22/20 38/58/38 54/75/36 
f 38/58/38 37/57/37 55/76/46 56/77/47 
f 37/57/37 39/59/21 57/78/48 55/76/46 
f 39/59/21 40/60/22 58/79/49 57/78/48 
f 40/60/22 41/61/39 59/80/50 58/79/49 
f 41/61/39 42/62/40 60/81/51 59/80/50 
f 42/62/40 43/63/25 61/82/52 60/81/51 
f 43/63/25 44/64/41 62/83/53 61/82/52 
f 44/64/41 45/65/27 63/84/54 62/83/53 
f 45/65/27 46/66/28 64/85/55 63/84/54 
f 46/68/28 47/67/29 65/86/56 64/87/55 
f 47/67/29 48/69/42 66/88/57 65/86/56 
f 48/69/42 49/70/31 67/89/58 66/88/57 
f 49/70/31 50/71/32 68/90/59 67/89/58 
f 50/71/32 51/72/43 69/91/60 68/90/59 
f 51/72/43 52/73/44 70/92/61 69/91/60 
f 52/73/44 53/74/45 71/93/62 70/92/61 
f 53/74/45 54/75/36 72/94/63 71/93/62 
f 54/75/36 38/58/38 56/77/47 72/94/63 
s 1
f 72/95/63 56/96/47 55/97/46 57/98/48 58/99/49 59/100/50 60/101/51 61/102/52 62/103/53 63/104/54 64/105/55 65/106/56 66/107/57 67/108/58 68/109/59 69/110/60 70/111/61 71/112/62 
# 56 polygons

