# 3ds Max Wavefront OBJ Exporter v0.97b - (c)2007 guruware
# File Created: 20.07.2020 14:04:59

mtllib door new.mtl

#
# object door
#

v  -60.4639 13.5832 -15.3717
v  -59.9519 13.5832 -2.6319
v  -70.6098 13.5832 -2.2639
v  -71.1219 13.5832 -15.0037
v  -60.4639 58.6196 -15.3717
v  -71.1219 58.6196 -15.0037
v  -70.6098 70.0805 -2.2639
v  -59.9519 70.0805 -2.6319
v  -69.8517 13.5832 21.7777
v  -59.1938 13.5832 21.4097
v  -59.1938 58.6196 21.4097
v  -69.8517 58.6196 21.7777
v  -59.6639 13.5832 8.3715
v  -59.6639 69.8537 8.3715
v  -59.8090 13.5832 2.8446
v  -70.3219 13.5832 8.7395
v  -70.4670 13.5832 3.2127
v  -70.4670 71.4385 3.2127
v  -70.3219 69.8537 8.7395
v  -59.8090 71.4385 2.8446
# 20 vertices

vn 0.5552 -0.5776 -0.5983
vn 0.7083 -0.7055 -0.0235
vn -0.7051 -0.7087 0.0234
vn -0.5987 -0.5771 -0.5555
vn 0.5988 0.3173 -0.7354
vn -0.6522 0.3177 -0.6883
vn -0.6663 0.6671 -0.3333
vn 0.6460 0.6658 -0.3733
vn -0.5566 -0.5774 0.5973
vn 0.5974 -0.5773 0.5567
vn 0.6489 0.3257 0.6876
vn -0.5988 0.3256 0.7318
vn 0.7057 -0.7082 -0.0220
vn 0.6720 0.6598 0.3362
vn 0.7068 -0.7071 -0.0185
vn -0.7079 -0.7060 0.0221
vn -0.7069 -0.7071 0.0185
vn -0.6527 0.7569 0.0318
vn -0.6512 0.6594 0.3757
vn 0.6535 0.7569 -0.0044
# 20 vertex normals

vt 0.0129 0.8763 0.0000
vt 0.1453 0.8694 0.0000
vt 0.1504 0.9801 0.0000
vt 0.0180 0.9870 0.0000
vt 0.6352 0.0130 0.0000
vt 0.7460 0.0130 0.0000
vt 0.7453 0.1912 0.0000
vt 0.6344 0.1912 0.0000
vt 0.7486 0.0189 0.0000
vt 0.8594 0.0172 0.0000
vt 0.8664 0.4854 0.0000
vt 0.7555 0.4870 0.0000
vt 0.8923 0.5057 0.0000
vt 0.8868 0.6382 0.0000
vt 0.2999 0.6141 0.0000
vt 0.4244 0.4865 0.0000
vt 0.8627 0.0146 0.0000
vt 0.9736 0.0130 0.0000
vt 0.9805 0.4812 0.0000
vt 0.8697 0.4828 0.0000
vt 0.0468 0.0172 0.0000
vt 0.1821 0.0270 0.0000
vt 0.1397 0.6105 0.0000
vt 0.0129 0.4842 0.0000
vt 0.2022 0.8672 0.0000
vt 0.2596 0.8651 0.0000
vt 0.2648 0.9758 0.0000
vt 0.2073 0.9780 0.0000
vt 0.7458 0.2499 0.0000
vt 0.7462 0.3097 0.0000
vt 0.6354 0.3097 0.0000
vt 0.6349 0.2499 0.0000
vt 0.8845 0.6951 0.0000
vt 0.8821 0.7525 0.0000
vt 0.2976 0.7285 0.0000
vt 0.2835 0.6704 0.0000
vt 0.2395 0.0312 0.0000
vt 0.2963 0.0353 0.0000
vt 0.2537 0.6212 0.0000
vt 0.1959 0.6311 0.0000
vt 0.4285 0.0450 0.0000
vt 0.3945 0.5119 0.0000
vt 0.3951 0.8586 0.0000
vt 0.4002 0.9693 0.0000
vt 0.7460 0.4887 0.0000
vt 0.6352 0.4887 0.0000
vt 0.8766 0.8880 0.0000
vt 0.4087 0.8688 0.0000
# 48 texture coords

o door
g door
usemtl wire_176026026
s 2
f 1/1/1 2/2/2 3/3/3 4/4/4 
s 4
f 5/5/5 6/6/6 7/7/7 8/8/8 
s 8
f 1/9/1 4/10/4 6/11/6 5/12/5 
s 16
f 4/13/4 3/14/3 7/15/7 6/16/6 
s 32
f 9/17/9 10/18/10 11/19/11 12/20/12 
s 64
f 10/21/10 13/22/13 14/23/14 11/24/11 
s 2
f 15/25/15 13/26/13 16/27/16 17/28/17 
s 4
f 18/29/18 19/30/19 14/31/14 20/32/20 
s 16
f 17/33/17 16/34/16 19/35/19 18/36/18 
s 64
f 15/37/15 2/38/2 8/39/8 20/40/20 
s 2
f 2/2/2 15/25/15 17/28/17 3/3/3 
s 4
f 7/7/7 18/29/18 20/32/20 8/8/8 
s 16
f 3/14/3 17/33/17 18/36/18 7/15/7 
s 64
f 2/38/2 1/41/1 5/42/5 8/39/8 
f 13/22/13 15/37/15 20/40/20 14/23/14 
s 2
f 13/26/13 10/43/10 9/44/9 16/27/16 
s 4
f 19/30/19 12/45/12 11/46/11 14/31/14 
s 16
f 16/34/16 9/47/9 12/48/12 19/35/19 
# 18 polygons

