# 3ds Max Wavefront OBJ Exporter v0.97b - (c)2007 guruware
# File Created: 20.07.2020 14:04:38

mtllib roof.mtl

#
# object roof
#

v  -74.6446 156.5861 -10.5578
v  -62.0611 156.5861 -42.4400
v  -36.1025 156.5861 -64.8226
v  -2.7157 156.5861 -72.5778
v  30.4509 156.5861 -63.9290
v  55.7992 156.5861 -40.8576
v  67.5222 156.5861 -8.6490
v  62.9343 156.5861 25.3182
v  43.0865 156.5861 53.2626
v  12.5258 156.5861 68.7825
v  -21.7468 156.5861 68.3223
v  -51.8799 156.5861 51.9876
v  -70.9702 156.5861 23.5204
v  -51.7694 166.2876 51.2517
v  -70.4826 166.4807 23.3429
v  -22.2343 165.7529 67.2677
v  11.3566 164.9988 67.7219
v  41.3080 164.1982 52.5103
v  60.7584 163.5345 25.1175
v  65.2519 163.1597 -8.1810
v  53.7592 163.1597 -39.7569
v  28.9131 163.5345 -62.3766
v  -3.5945 164.1982 -70.8582
v  -36.3165 164.9988 -63.2586
v  -61.7566 165.7529 -41.3189
v  -74.0869 166.2876 -10.0651
v  -40.4612 180.4966 41.3212
v  -56.0251 180.9896 18.0808
v  -15.9148 179.1304 54.6703
v  11.9908 177.2041 55.0701
v  36.8628 175.1590 42.4291
v  53.0032 173.4634 19.6431
v  56.7145 172.5060 -8.0680
v  47.1466 172.5060 -34.3558
v  26.4912 173.4634 -53.1980
v  -0.5197 175.1590 -60.2783
v  -27.6982 177.2041 -53.9745
v  -48.8181 179.1304 -35.7308
v  -59.0411 180.4966 -9.7266
v  -21.4356 199.4585 25.8944
v  -32.3612 200.3090 9.4678
v  -4.2767 197.1016 35.3781
v  15.1847 193.7784 35.7463
v  32.4901 190.2501 26.9147
v  43.6751 187.3251 10.9065
v  46.1774 185.6734 -8.6110
v  39.4237 185.6734 -27.1666
v  24.9612 187.3251 -40.5095
v  6.1031 190.2501 -45.5829
v  -12.8304 193.7784 -41.2245
v  -27.5020 197.1016 -28.4329
v  -34.5505 199.4585 -10.1385
v  11.1295 212.2279 -1.7137
v  8.6527 212.4817 -5.4600
v  15.0051 211.5249 0.4587
v  19.3915 210.5337 0.5596
v  23.2840 209.4813 -1.4341
v  25.7907 208.6088 -5.0657
v  26.3375 208.1161 -9.5033
v  24.7990 208.1161 -13.7302
v  21.5277 208.6088 -16.7782
v  17.2731 209.4813 -17.9488
v  13.0098 210.5337 -16.9741
v  9.7144 211.5249 -14.0772
v  8.1420 212.2279 -9.9219
v  12.3832 215.0163 -2.4978
v  10.0811 215.2521 -5.9799
v  15.9854 214.3629 -0.4786
v  20.0625 213.4416 -0.3848
v  23.6804 212.4634 -2.2379
v  26.0103 211.6524 -5.6134
v  26.5185 211.1945 -9.7380
v  25.0885 211.1945 -13.6668
v  22.0480 211.6524 -16.4997
v  18.0935 212.4634 -17.5879
v  14.1308 213.4416 -16.6819
v  11.0679 214.3629 -13.9893
v  9.6064 215.0163 -10.1271
# 78 vertices

vn -0.7665 -0.6330 -0.1085
vn -0.6343 -0.6199 -0.4620
vn -0.3517 -0.5983 -0.7200
vn 0.0240 -0.5707 -0.8208
vn 0.4089 -0.5435 -0.7331
vn 0.7085 -0.5261 -0.4705
vn 0.8451 -0.5261 -0.0950
vn 0.7845 -0.5435 0.2987
vn 0.5460 -0.5707 0.6133
vn 0.1934 -0.5983 0.7776
vn -0.1889 -0.6199 0.7616
vn -0.5174 -0.6330 0.5758
vn -0.7241 -0.6374 0.2635
vn -0.6184 0.4043 0.6739
vn -0.8608 0.4010 0.3133
vn -0.2364 0.4147 0.8787
vn 0.1948 0.4330 0.8801
vn 0.5732 0.4576 0.6797
vn 0.8118 0.4827 0.3286
vn 0.8620 0.4988 -0.0900
vn 0.7182 0.4988 -0.4852
vn 0.4107 0.4827 -0.7735
vn 0.0022 0.4576 -0.8891
vn -0.4165 0.4330 -0.7994
vn -0.7459 0.4147 -0.5212
vn -0.9069 0.4043 -0.1187
vn -0.4247 0.7518 0.5043
vn -0.6130 0.7579 0.2231
vn -0.1277 0.7350 0.6659
vn 0.2099 0.7111 0.6711
vn 0.5113 0.6851 0.5190
vn 0.7082 0.6626 0.2437
vn 0.7549 0.6492 -0.0932
vn 0.6382 0.6492 -0.4139
vn 0.3858 0.6626 -0.6419
vn 0.0581 0.6851 -0.7262
vn -0.2706 0.7111 -0.6490
vn -0.5259 0.7350 -0.4280
vn -0.6495 0.7518 -0.1133
vn -0.2740 0.8708 0.4082
vn -0.4388 0.8843 0.1597
vn -0.0150 0.8329 0.5532
vn 0.2806 0.7781 0.5621
vn 0.5472 0.7173 0.4313
vn 0.7231 0.6648 0.1873
vn 0.7643 0.6346 -0.1149
vn 0.6593 0.6346 -0.4032
vn 0.4335 0.6648 -0.6083
vn 0.1419 0.7173 -0.6821
vn -0.1463 0.7781 -0.6109
vn -0.3670 0.8329 -0.4141
vn -0.4723 0.8708 -0.1366
vn -0.3545 0.7830 0.5112
vn -0.5546 0.8072 0.2019
vn -0.0399 0.7143 0.6987
vn 0.3244 0.6136 0.7199
vn 0.6575 0.5017 0.5622
vn 0.8780 0.4048 0.2555
vn 0.9283 0.3487 -0.1292
vn 0.7942 0.3487 -0.4977
vn 0.5084 0.4048 -0.7601
vn 0.1423 0.5016 -0.8533
vn -0.2142 0.6136 -0.7600
vn -0.4797 0.7143 -0.5096
vn -0.6001 0.7830 -0.1637
vn -0.2628 0.8658 0.4258
vn -0.4369 0.8853 0.1590
vn 0.0103 0.8112 0.5847
vn 0.3236 0.7329 0.5984
vn 0.6066 0.6484 0.4600
vn 0.7922 0.5772 0.1980
vn 0.8342 0.5366 -0.1274
vn 0.7209 0.5366 -0.4386
vn 0.4796 0.5772 -0.6609
vn 0.1690 0.6484 -0.7423
vn -0.1368 0.7329 -0.6664
vn -0.3680 0.8112 -0.4545
vn -0.4751 0.8658 -0.1572
# 78 vertex normals

vt 0.1638 0.9501 3.3169
vt 0.1366 0.9742 -0.4515
vt 0.1013 0.9829 3.3169
vt 0.0661 0.9742 -3.3169
vt 0.0389 0.9501 3.3169
vt 0.0260 0.9162 3.3169
vt 0.0304 0.8801 3.3169
vt 0.0510 0.8502 3.3169
vt 0.0832 0.8334 3.3169
vt 0.1195 0.8334 3.3169
vt 0.1517 0.8502 3.3169
vt 0.1723 0.8801 3.3169
vt 0.1767 0.9162 3.3169
vt 0.5266 0.0316 -1.1717
vt 0.6806 0.0656 -1.1717
vt 0.6621 0.1052 -1.1717
vt 0.5261 0.0782 -1.1717
vt 0.8110 0.1477 -1.1717
vt 0.7820 0.1767 -1.1717
vt 0.9166 0.2648 1.1717
vt 0.8840 0.2869 -1.1717
vt 0.2579 0.7189 1.3083
vt 0.4022 0.6608 -1.3083
vt 0.4101 0.6955 -1.3083
vt 0.2701 0.7558 -1.3083
vt 0.5483 0.6199 -1.3083
vt 0.5505 0.6518 -1.3083
vt 0.6963 0.6163 -1.3083
vt 0.6923 0.6459 -1.3083
vt 0.8399 0.6499 -1.3083
vt 0.8302 0.6788 -1.3083
vt 0.9740 0.7189 1.3083
vt 0.9593 0.7482 -1.3083
vt 0.0878 0.5664 -1.1717
vt 0.0966 0.4094 -1.1717
vt 0.1316 0.4124 -1.1717
vt 0.1211 0.5632 -1.1717
vt 0.1471 0.2648 1.1717
vt 0.1822 0.2795 -1.1717
vt 0.2413 0.1442 -1.1717
vt 0.2711 0.1723 -1.1717
vt 0.3720 0.0623 -1.1717
vt 0.3899 0.1022 -1.1717
vt 0.6376 0.1877 -1.1717
vt 0.5251 0.1658 -1.1717
vt 0.7386 0.2468 -1.1717
vt 0.8216 0.3420 -1.1717
vt 0.2877 0.7873 -1.3083
vt 0.4538 0.7511 -1.3083
vt 0.3547 0.8311 -1.3083
vt 0.5699 0.7078 -1.3083
vt 0.6904 0.7001 -1.3083
vt 0.8077 0.7278 -1.3083
vt 0.9142 0.7905 -1.3083
vt 0.1937 0.4386 -1.1717
vt 0.1852 0.5657 -1.1717
vt 0.2386 0.3276 -1.1717
vt 0.3141 0.2402 -1.1717
vt 0.4129 0.1843 -1.1717
vt 0.6023 0.3100 -1.1717
vt 0.5227 0.2939 -1.1717
vt 0.6740 0.3531 -1.1717
vt 0.7298 0.4229 -1.1717
vt 0.3576 0.8321 -1.3083
vt 0.5246 0.8207 -1.3083
vt 0.4612 0.8829 -1.3083
vt 0.6048 0.7825 -1.3083
vt 0.6903 0.7736 -1.3083
vt 0.7736 0.7935 -1.3083
vt 0.8480 0.8423 -1.3083
vt 0.2814 0.4823 -1.1717
vt 0.2746 0.5735 -1.1717
vt 0.3158 0.4034 -1.1717
vt 0.3719 0.3430 -1.1717
vt 0.4431 0.3056 -1.1717
vt 0.5367 0.5146 -1.1717
vt 0.5145 0.5107 -1.1717
vt 0.5572 0.5256 -1.1717
vt 0.5731 0.5420 -1.1717
vt 0.4648 0.8878 -1.3083
vt 0.6487 0.9240 -1.3083
vt 0.6355 0.9397 -1.3083
vt 0.6676 0.9168 -1.3083
vt 0.6890 0.9147 -1.3083
vt 0.7107 0.9185 -1.3083
vt 0.7292 0.9282 -1.3083
vt 0.4436 0.5608 -1.1717
vt 0.4386 0.5838 -1.1717
vt 0.4549 0.5396 -1.1717
vt 0.4717 0.5231 -1.1717
vt 0.4924 0.5132 -1.1717
vt 0.5317 0.5288 -1.1717
vt 0.5140 0.5249 -1.1717
vt 0.5481 0.5385 -1.1717
vt 0.5625 0.5527 -1.1717
vt 0.6319 0.9318 -1.3083
vt 0.6540 0.9356 -1.3083
vt 0.6385 0.9428 -1.3083
vt 0.6707 0.9302 -1.3083
vt 0.6884 0.9289 -1.3083
vt 0.7062 0.9324 -1.3083
vt 0.7227 0.9397 -1.3083
vt 0.4584 0.5669 -1.1717
vt 0.4536 0.5872 -1.1717
vt 0.4671 0.5493 -1.1717
vt 0.4801 0.5357 -1.1717
vt 0.4964 0.5274 -1.1717
vt 0.2050 0.9227 -0.0122
vt 0.2148 0.9140 0.0122
vt 0.2274 0.9109 -0.0122
vt 0.2400 0.9140 0.0122
vt 0.2498 0.9227 -0.0122
vt 0.2544 0.9348 -0.0122
vt 0.2528 0.9478 -0.0122
vt 0.2454 0.9585 -0.0122
vt 0.2339 0.9645 -0.0122
vt 0.2209 0.9645 -0.0122
vt 0.2094 0.9585 -0.0122
vt 0.2020 0.9478 -0.0122
vt 0.2004 0.9348 -0.0122
# 120 texture coords

o roof
g roof
usemtl wire_177028149
s 1
f 1/1/1 2/2/2 3/3/3 4/4/4 5/5/5 6/6/6 7/7/7 8/8/8 9/9/9 10/10/10 11/11/11 12/12/12 13/13/13 
s 8
f 13/14/13 12/15/12 14/16/14 15/17/15 
f 12/15/12 11/18/11 16/19/16 14/16/14 
f 11/18/11 10/20/10 17/21/17 16/19/16 
f 10/22/10 9/23/9 18/24/18 17/25/17 
f 9/23/9 8/26/8 19/27/19 18/24/18 
f 8/26/8 7/28/7 20/29/20 19/27/19 
f 7/28/7 6/30/6 21/31/21 20/29/20 
f 6/30/6 5/32/5 22/33/22 21/31/21 
f 5/34/5 4/35/4 23/36/23 22/37/22 
f 4/35/4 3/38/3 24/39/24 23/36/23 
f 3/38/3 2/40/2 25/41/25 24/39/24 
f 2/40/2 1/42/1 26/43/26 25/41/25 
f 1/42/1 13/14/13 15/17/15 26/43/26 
f 15/17/15 14/16/14 27/44/27 28/45/28 
f 14/16/14 16/19/16 29/46/29 27/44/27 
f 16/19/16 17/21/17 30/47/30 29/46/29 
f 17/48/17 18/24/18 31/49/31 30/50/30 
f 18/24/18 19/27/19 32/51/32 31/49/31 
f 19/27/19 20/29/20 33/52/33 32/51/32 
f 20/29/20 21/31/21 34/53/34 33/52/33 
f 21/31/21 22/33/22 35/54/35 34/53/34 
f 22/37/22 23/36/23 36/55/36 35/56/35 
f 23/36/23 24/39/24 37/57/37 36/55/36 
f 24/39/24 25/41/25 38/58/38 37/57/37 
f 25/41/25 26/43/26 39/59/39 38/58/38 
f 26/43/26 15/17/15 28/45/28 39/59/39 
f 28/45/28 27/44/27 40/60/40 41/61/41 
f 27/44/27 29/46/29 42/62/42 40/60/40 
f 29/46/29 30/47/30 43/63/43 42/62/42 
f 30/64/30 31/49/31 44/65/44 43/66/43 
f 31/49/31 32/51/32 45/67/45 44/65/44 
f 32/51/32 33/52/33 46/68/46 45/67/45 
f 33/52/33 34/53/34 47/69/47 46/68/46 
f 34/53/34 35/54/35 48/70/48 47/69/47 
f 35/56/35 36/55/36 49/71/49 48/72/48 
f 36/55/36 37/57/37 50/73/50 49/71/49 
f 37/57/37 38/58/38 51/74/51 50/73/50 
f 38/58/38 39/59/39 52/75/52 51/74/51 
f 39/59/39 28/45/28 41/61/41 52/75/52 
f 41/61/41 40/60/40 53/76/53 54/77/54 
f 40/60/40 42/62/42 55/78/55 53/76/53 
f 42/62/42 43/63/43 56/79/56 55/78/55 
f 43/80/43 44/65/44 57/81/57 56/82/56 
f 44/65/44 45/67/45 58/83/58 57/81/57 
f 45/67/45 46/68/46 59/84/59 58/83/58 
f 46/68/46 47/69/47 60/85/60 59/84/59 
f 47/69/47 48/70/48 61/86/61 60/85/60 
f 48/72/48 49/71/49 62/87/62 61/88/61 
f 49/71/49 50/73/50 63/89/63 62/87/62 
f 50/73/50 51/74/51 64/90/64 63/89/63 
f 51/74/51 52/75/52 65/91/65 64/90/64 
f 52/75/52 41/61/41 54/77/54 65/91/65 
f 54/77/54 53/76/53 66/92/66 67/93/67 
f 53/76/53 55/78/55 68/94/68 66/92/66 
f 55/78/55 56/79/56 69/95/69 68/94/68 
f 56/96/56 57/81/57 70/97/70 69/98/69 
f 57/81/57 58/83/58 71/99/71 70/97/70 
f 58/83/58 59/84/59 72/100/72 71/99/71 
f 59/84/59 60/85/60 73/101/73 72/100/72 
f 60/85/60 61/86/61 74/102/74 73/101/73 
f 61/88/61 62/87/62 75/103/75 74/104/74 
f 62/87/62 63/89/63 76/105/76 75/103/75 
f 63/89/63 64/90/64 77/106/77 76/105/76 
f 64/90/64 65/91/65 78/107/78 77/106/77 
f 65/91/65 54/77/54 67/93/67 78/107/78 
s 1
f 78/108/78 67/109/67 66/110/66 68/111/68 69/112/69 70/113/70 71/114/71 72/115/72 73/116/73 74/117/74 75/118/75 76/119/76 77/120/77 
# 67 polygons

