# 3ds Max Wavefront OBJ Exporter v0.97b - (c)2007 guruware
# File Created: 20.07.2020 14:05:17

mtllib stump.mtl

#
# object stump
#

v  67.8469 0.0000 -80.0153
v  53.4782 0.0000 -34.4217
v  57.8060 0.0000 27.9663
v  75.6549 0.0000 72.8655
v  56.4798 0.0000 73.2217
v  36.2443 0.0000 55.5636
v  -24.8369 0.0000 60.5210
v  -52.5112 0.0000 79.9100
v  -64.9357 0.0000 77.5720
v  -72.6518 0.0000 65.5841
v  -61.2115 0.0000 37.2653
v  -64.3553 0.0000 -33.8280
v  -78.1182 -1.7529 -52.6473
v  -78.0750 0.0000 -66.9435
v  -41.7982 0.0000 -55.4962
v  28.6513 0.0000 -58.4920
v  -24.1807 39.5560 -60.4477
v  16.6005 39.5560 -63.3315
v  -58.9508 39.5560 -51.0966
v  -62.9086 39.5560 -38.8429
v  -67.8543 39.5560 25.8540
v  -70.8867 39.5560 -14.1421
v  -60.8086 39.5487 43.4237
v  -41.2258 39.5560 62.1646
v  -55.9997 39.5560 56.4326
v  25.8118 39.5560 56.3705
v  -18.6073 39.5560 60.2310
v  47.4444 39.5560 56.1738
v  59.8704 39.5560 20.5294
v  61.2105 39.5560 55.6562
v  57.8505 39.5560 -24.4966
v  60.6363 35.1349 -59.7127
v  -22.6412 80.1872 -56.6314
v  17.3351 77.1793 -60.0046
v  -53.7323 79.1119 -44.7930
v  -58.2825 78.9844 -34.6956
v  -64.0421 80.2014 25.6324
v  -67.4547 78.7273 -14.3416
v  -54.5480 78.6764 36.7279
v  -34.2090 79.4122 56.1197
v  -47.6755 79.1119 51.7550
v  24.0827 81.8785 55.1839
v  -15.6863 79.8252 58.7296
v  41.4425 80.3165 50.8290
v  63.5055 79.0192 14.5453
v  53.5250 79.1119 47.0684
v  61.1468 78.3067 -25.4900
v  48.2843 79.1119 -51.1033
v  -21.4210 119.2743 -58.4659
v  15.8604 118.5148 -60.0302
v  -50.0088 118.6679 -41.6683
v  -55.3005 118.6679 -32.2132
v  -63.1464 118.6679 24.0545
v  -65.9675 118.6679 -13.1538
v  -53.8062 118.2739 34.2640
v  -31.8580 118.9434 52.0091
v  -44.3742 118.6679 48.1501
v  22.5658 119.3224 54.4959
v  -14.6425 119.3224 57.3170
v  38.6120 118.9529 48.6627
v  62.0628 118.6679 13.3593
v  47.3391 118.6679 45.5456
v  59.2418 118.6679 -23.8490
v  45.0834 118.5148 -44.3320
v  -21.3769 158.1295 -57.7064
v  15.8604 158.0708 -60.0302
v  -50.0088 158.2238 -41.6683
v  -55.3005 158.2238 -32.2132
v  -63.1464 156.9579 24.0545
v  -65.9675 158.2238 -13.1538
v  -53.5658 157.8307 34.2702
v  -31.8580 158.4994 52.0091
v  -44.3742 158.2238 48.1501
v  22.5658 158.8784 54.4959
v  -14.6425 158.8784 57.3170
v  38.6120 158.5088 48.6627
v  62.0628 158.2238 13.3593
v  44.2758 156.6801 48.0209
v  59.2418 158.2238 -23.8490
v  45.0834 158.0708 -44.3320
# 80 vertices

vn 0.5380 -0.3559 -0.7642
vn 0.7819 0.6129 0.1139
vn 0.7475 0.6385 -0.1831
vn 0.7427 -0.3768 0.5535
vn -0.2394 -0.5035 0.8301
vn -0.2970 0.5852 0.7546
vn 0.2802 0.6337 0.7210
vn 0.1216 -0.4800 0.8688
vn -0.4897 -0.4260 0.7607
vn -0.8653 -0.4653 0.1863
vn -0.7991 0.5786 -0.1634
vn -0.8255 0.4546 0.3345
vn -0.7260 -0.6699 0.1553
vn -0.5918 -0.3170 -0.7411
vn 0.1392 0.5947 -0.7918
vn -0.2462 0.5805 -0.7761
vn -0.1536 0.0185 -0.9880
vn -0.0014 -0.0157 -0.9999
vn -0.6245 0.3906 -0.6763
vn -0.9134 0.2804 -0.2950
vn -0.9774 -0.0073 0.2115
vn -0.9958 -0.0233 -0.0890
vn -0.8830 0.3223 0.3412
vn -0.1301 0.3119 0.9412
vn -0.6906 0.3589 0.6279
vn 0.0506 0.0119 0.9986
vn 0.0859 0.0123 0.9962
vn 0.0223 0.2694 0.9628
vn 0.9960 -0.0789 -0.0414
vn 0.6820 0.4062 0.6082
vn 0.9950 -0.0979 0.0176
vn 0.7633 0.3874 -0.5170
vn -0.2227 0.0283 -0.9745
vn 0.1016 0.0464 -0.9937
vn -0.6814 0.1638 -0.7134
vn -0.9056 0.1211 -0.4065
vn -0.9176 0.0622 0.3927
vn -0.9830 0.0641 -0.1721
vn -0.8311 0.1387 0.5385
vn -0.2227 0.1492 0.9634
vn -0.6499 0.1741 0.7398
vn 0.1672 0.0295 0.9855
vn -0.0251 0.0376 0.9990
vn 0.2785 0.1197 0.9530
vn 0.9935 -0.0176 0.1121
vn 0.7076 0.2168 0.6726
vn 0.9652 -0.0171 -0.2609
vn 0.6017 0.2496 -0.7587
vn -0.2793 -0.0083 -0.9602
vn 0.2207 0.0036 -0.9753
vn -0.7129 0.0619 -0.6985
vn -0.8716 0.0479 -0.4878
vn -0.9187 0.0186 0.3946
vn -0.9767 0.0214 -0.2136
vn -0.7836 0.0294 0.6206
vn -0.2953 0.0582 0.9536
vn -0.5933 0.0618 0.8026
vn 0.2092 0.0131 0.9778
vn -0.1103 0.0191 0.9937
vn 0.3397 0.0386 0.9397
vn 0.9845 0.0205 0.1739
vn 0.6754 0.0719 0.7340
vn 0.9429 0.0290 -0.3319
vn 0.6666 0.0912 -0.7398
vn -0.2099 0.6663 -0.7155
vn 0.1629 0.6492 -0.7430
vn -0.5352 0.6528 -0.5361
vn -0.6170 0.7066 -0.3465
vn -0.7475 0.5811 0.3218
vn -0.7269 0.6700 -0.1510
vn -0.4863 -0.7640 0.4239
vn -0.2089 0.7077 0.6749
vn -0.4694 0.6400 0.6084
vn 0.1559 0.7065 0.6904
vn -0.0872 0.6884 0.7201
vn -0.0517 -0.9223 0.3830
vn 0.7179 0.6784 0.1563
vn 0.5208 0.4480 0.7267
vn 0.7099 0.6572 -0.2531
vn 0.5035 0.6530 -0.5658
# 80 vertex normals

vt 0.9616 0.8206 2.0906
vt 0.8842 0.8081 2.0906
vt 0.7839 0.8300 -0.9702
vt 0.7152 0.8696 -2.0906
vt 0.7101 0.8386 2.0906
vt 0.7339 0.8015 2.0906
vt 0.7114 0.7035 2.0906
vt 0.6733 0.6632 2.0906
vt 0.6742 0.6424 2.0906
vt 0.6918 0.6271 2.0906
vt 0.7405 0.6389 2.0906
vt 0.8552 0.6169 2.0906
vt 0.8826 0.5900 2.0906
vt 0.9060 0.5868 2.0906
vt 0.8958 0.6484 2.0906
vt 0.9174 0.7621 2.0906
vt 0.4688 0.7073 -0.2464
vt 0.4125 0.8677 -0.2464
vt 0.3349 0.7955 -0.2464
vt 0.3675 0.6998 -0.2464
vt 0.3903 0.9568 -0.2464
vt 0.3086 0.8792 -0.2464
vt 0.0249 0.1204 0.6863
vt 0.0568 0.1060 -0.6863
vt 0.1228 0.1968 -0.6863
vt 0.0945 0.2103 -0.6863
vt 0.1134 0.1002 -0.6863
vt 0.2806 0.0553 -0.6863
vt 0.2813 0.1592 -0.6863
vt 0.1843 0.1825 -0.6863
vt 0.3445 0.0269 -0.6863
vt 0.3302 0.1465 -0.6863
vt 0.3774 0.0206 -0.6863
vt 0.4068 0.0259 -0.6863
vt 0.4114 0.1405 -0.6863
vt 0.3673 0.1387 -0.6863
vt 0.4765 0.0520 -0.6863
vt 0.6182 0.0662 -0.6863
vt 0.5907 0.1650 -0.6863
vt 0.4729 0.1508 -0.6863
vt 0.6790 0.0586 -0.6863
vt 0.6494 0.1674 -0.6863
vt 0.7224 0.0594 0.6863
vt 0.8030 0.1296 -0.6863
vt 0.7681 0.2184 -0.6863
vt 0.6868 0.1702 -0.6863
vt 0.9290 0.2001 -0.6863
vt 0.8637 0.2686 -0.6863
vt 0.4905 0.5085 -0.2464
vt 0.5239 0.6171 0.2464
vt 0.4207 0.5957 -0.2464
vt 0.3937 0.5090 -0.2464
vt 0.2394 0.7634 -0.2464
vt 0.2761 0.6676 -0.2464
vt 0.2180 0.8427 -0.2464
vt 0.0952 0.2035 -0.6863
vt 0.1248 0.1966 -0.6863
vt 0.1522 0.2866 -0.6863
vt 0.1269 0.2933 -0.6863
vt 0.3009 0.2620 -0.6863
vt 0.2031 0.2733 -0.6863
vt 0.3381 0.2544 -0.6863
vt 0.4189 0.2532 -0.6863
vt 0.3814 0.2508 -0.6863
vt 0.5743 0.2763 -0.6863
vt 0.4687 0.2588 -0.6863
vt 0.6225 0.2787 -0.6863
vt 0.7397 0.3148 -0.6863
vt 0.6564 0.2807 -0.6863
vt 0.8288 0.3505 -0.6863
vt 0.2951 0.5838 -0.2464
vt 0.2997 0.5103 -0.2464
vt 0.1469 0.7328 -0.2464
vt 0.1729 0.6432 -0.2464
vt 0.1268 0.8111 -0.2464
vt 0.1261 0.2844 -0.6863
vt 0.1516 0.2808 -0.6863
vt 0.1663 0.3725 -0.6863
vt 0.1413 0.3760 -0.6863
vt 0.3058 0.3586 -0.6863
vt 0.2167 0.3654 -0.6863
vt 0.3402 0.3562 -0.6863
vt 0.4165 0.3578 -0.6863
vt 0.3831 0.3558 -0.6863
vt 0.5571 0.3726 -0.6863
vt 0.4624 0.3617 -0.6863
vt 0.6004 0.3787 -0.6863
vt 0.7089 0.4073 -0.6863
vt 0.6240 0.3822 -0.6863
vt 0.7921 0.4357 -0.6863
vt 0.1914 0.5610 -0.2464
vt 0.2006 0.4987 -0.2464
vt 0.0546 0.7091 -0.2464
vt 0.0769 0.6206 -0.2464
vt 0.0339 0.7862 0.2464
vt 0.1401 0.3692 -0.6863
vt 0.1655 0.3679 -0.6863
vt 0.1700 0.4606 -0.6863
vt 0.1446 0.4619 -0.6863
vt 0.3086 0.4509 -0.6863
vt 0.2212 0.4581 -0.6863
vt 0.3418 0.4524 -0.6863
vt 0.4123 0.4553 -0.6863
vt 0.3810 0.4536 -0.6863
vt 0.5422 0.4695 -0.6863
vt 0.4549 0.4589 -0.6863
vt 0.5827 0.4751 -0.6863
vt 0.6832 0.4971 -0.6863
vt 0.5973 0.4733 -0.6863
vt 0.7652 0.5226 -0.6863
vt 0.0942 0.5416 -0.2464
vt 0.1048 0.4812 -0.2464
vt 0.5084 0.7406 0.4983
vt 0.5456 0.7009 -0.4983
vt 0.6047 0.6850 0.4983
vt 0.6577 0.6949 -0.4983
vt 0.6709 0.7068 -0.4983
vt 0.6975 0.7309 -0.4983
vt 0.7126 0.7902 -0.4983
vt 0.7031 0.8112 -0.4983
vt 0.6960 0.8376 -0.4983
vt 0.6785 0.8501 -0.4983
vt 0.6546 0.8674 -0.4983
vt 0.5952 0.8825 -0.4983
vt 0.5672 0.8819 -0.4983
vt 0.5577 0.8843 -0.4983
vt 0.5122 0.8392 -0.4983
vt 0.4971 0.7799 -0.4983
# 128 texture coords

o stump
g stump
usemtl wire_225143087
s 1
f 1/1/1 2/2/2 3/3/3 4/4/4 5/5/5 6/6/6 7/7/7 8/8/8 9/9/9 10/10/10 11/11/11 12/12/12 13/13/13 14/14/14 15/15/15 16/16/16 
s 8
f 16/17/16 15/18/15 17/19/17 18/20/18 
f 15/18/15 14/21/14 19/22/19 17/19/17 
f 14/23/14 13/24/13 20/25/20 19/26/19 
f 12/27/12 11/28/11 21/29/21 22/30/22 
f 11/28/11 10/31/10 23/32/23 21/29/21 
f 9/33/9 8/34/8 24/35/24 25/36/25 
f 7/37/7 6/38/6 26/39/26 27/40/27 
f 6/38/6 5/41/5 28/42/28 26/39/26 
f 4/43/4 3/44/3 29/45/29 30/46/30 
f 3/44/3 2/47/2 31/48/31 29/45/29 
f 2/49/2 1/50/1 32/51/32 31/52/31 
f 1/50/1 16/17/16 18/20/18 32/51/32 
f 18/20/18 17/19/17 33/53/33 34/54/34 
f 17/19/17 19/22/19 35/55/35 33/53/33 
f 19/56/19 20/57/20 36/58/36 35/59/35 
f 22/30/22 21/29/21 37/60/37 38/61/38 
f 21/29/21 23/32/23 39/62/39 37/60/37 
f 25/36/25 24/35/24 40/63/40 41/64/41 
f 27/40/27 26/39/26 42/65/42 43/66/43 
f 26/39/26 28/42/28 44/67/44 42/65/42 
f 30/46/30 29/45/29 45/68/45 46/69/46 
f 29/45/29 31/48/31 47/70/47 45/68/45 
f 31/52/31 32/51/32 48/71/48 47/72/47 
f 32/51/32 18/20/18 34/54/34 48/71/48 
f 34/54/34 33/53/33 49/73/49 50/74/50 
f 33/53/33 35/55/35 51/75/51 49/73/49 
f 35/76/35 36/77/36 52/78/52 51/79/51 
f 38/61/38 37/60/37 53/80/53 54/81/54 
f 37/60/37 39/62/39 55/82/55 53/80/53 
f 41/64/41 40/63/40 56/83/56 57/84/57 
f 43/66/43 42/65/42 58/85/58 59/86/59 
f 42/65/42 44/67/44 60/87/60 58/85/58 
f 46/69/46 45/68/45 61/88/61 62/89/62 
f 45/68/45 47/70/47 63/90/63 61/88/61 
f 47/72/47 48/71/48 64/91/64 63/92/63 
f 48/71/48 34/54/34 50/74/50 64/91/64 
f 50/74/50 49/73/49 65/93/65 66/94/66 
f 49/73/49 51/75/51 67/95/67 65/93/65 
f 51/96/51 52/97/52 68/98/68 67/99/67 
f 54/81/54 53/80/53 69/100/69 70/101/70 
f 53/80/53 55/82/55 71/102/71 69/100/69 
f 57/84/57 56/83/56 72/103/72 73/104/73 
f 59/86/59 58/85/58 74/105/74 75/106/75 
f 58/85/58 60/87/60 76/107/76 74/105/74 
f 62/89/62 61/88/61 77/108/77 78/109/78 
f 61/88/61 63/90/63 79/110/79 77/108/77 
f 63/92/63 64/91/64 80/111/80 79/112/79 
f 64/91/64 50/74/50 66/94/66 80/111/80 
s 1
f 80/113/80 66/114/66 65/115/65 67/116/67 68/117/68 70/118/70 69/119/69 71/120/71 73/121/73 72/122/72 75/123/75 74/124/74 76/125/76 78/126/78 77/127/77 79/128/79 
s 8
f 8/34/8 7/37/7 27/40/27 24/35/24 
f 24/35/24 27/40/27 43/66/43 40/63/40 
f 40/63/40 43/66/43 59/86/59 56/83/56 
f 56/83/56 59/86/59 75/106/75 72/103/72 
f 5/41/5 4/43/4 30/46/30 28/42/28 
f 28/42/28 30/46/30 46/69/46 44/67/44 
f 44/67/44 46/69/46 62/89/62 60/87/60 
f 60/87/60 62/89/62 78/109/78 76/107/76 
f 10/31/10 9/33/9 25/36/25 23/32/23 
f 23/32/23 25/36/25 41/64/41 39/62/39 
f 39/62/39 41/64/41 57/84/57 55/82/55 
f 55/82/55 57/84/57 73/104/73 71/102/71 
f 13/24/13 12/27/12 22/30/22 20/25/20 
f 20/57/20 22/30/22 38/61/38 36/58/36 
f 36/77/36 38/61/38 54/81/54 52/78/52 
f 52/97/52 54/81/54 70/101/70 68/98/68 
# 66 polygons

