# 3ds Max Wavefront OBJ Exporter v0.97b - (c)2007 guruware
# File Created: 20.07.2020 14:05:30

mtllib window (same as shoe).mtl

#
# object window1
#

v  -53.2483 88.0838 -34.2613
v  -64.4251 88.1327 -14.4790
v  -69.5117 88.5160 -17.3539
v  -58.3350 88.4671 -37.1361
v  -51.3715 120.3512 -33.2806
v  -56.4581 120.7344 -36.1555
v  -67.6349 120.7833 -16.3732
v  -62.5482 120.4001 -13.4984
# 8 vertices

vn 0.7520 -0.6151 -0.2367
vn 0.1840 -0.6127 0.7686
vn -0.8191 -0.5371 0.2017
vn -0.2511 -0.5396 -0.8036
vn 0.8190 0.5371 -0.2018
vn -0.1839 0.6127 -0.7686
vn -0.7521 0.6151 0.2366
vn 0.2512 0.5395 0.8036
# 8 vertex normals

vt 0.3749 0.9794 0.0000
vt 0.0378 0.9815 0.0000
vt 0.0373 0.8946 0.0000
vt 0.3744 0.8926 0.0000
vt 0.6783 0.6426 0.0000
vt 0.7652 0.6425 0.0000
vt 0.7653 0.9796 0.0000
vt 0.6785 0.9797 0.0000
vt 0.9009 0.5055 0.0000
vt 0.9878 0.5058 0.0000
vt 0.9859 0.9855 0.0000
vt 0.8991 0.9852 0.0000
vt 0.0156 0.0194 0.0000
vt 0.6170 0.0176 0.0000
vt 0.6195 0.8736 0.0000
vt 0.0180 0.8754 0.0000
vt 0.7958 0.5065 0.0000
vt 0.8827 0.5069 0.0000
vt 0.8808 0.9866 0.0000
vt 0.7940 0.9862 0.0000
vt 0.6476 0.0151 0.0000
vt 0.9847 0.0124 0.0000
vt 0.9886 0.4921 0.0000
vt 0.6515 0.4948 0.0000
# 24 texture coords

o window1
g window1
usemtl wire_228153184
s 2
f 1/1/1 2/2/2 3/3/3 4/4/4 
s 4
f 5/5/5 6/6/6 7/7/7 8/8/8 
s 8
f 1/9/1 4/10/4 6/11/6 5/12/5 
s 16
f 4/13/4 3/14/3 7/15/7 6/16/6 
s 32
f 3/17/3 2/18/2 8/19/8 7/20/7 
s 64
f 2/21/2 1/22/1 5/23/5 8/24/8 
# 6 polygons

